<?xml version="1.0" encoding="utf-8"?>
<!-- Generator: Adobe Illustrator 22.1.0, SVG Export Plug-In . SVG Version: 6.00 Build 0)  -->
<svg version="1.1" xmlns="http://www.w3.org/2000/svg" xmlns:xlink="http://www.w3.org/1999/xlink" x="0px" y="0px"
	 viewBox="0 0 483 583" style="enable-background:new 0 0 483 583;" xml:space="preserve">
<style type="text/css">
	.st0{fill:#F4FF00;stroke:#000000;stroke-width:0.8427;stroke-linecap:round;stroke-miterlimit:10;}
	.st1{fill:#FF0000;stroke:#000000;stroke-width:0.8165;stroke-miterlimit:10;}
	.st2{fill:#FFFF00;stroke:#000000;stroke-width:0.4082;stroke-miterlimit:10;}
	.st3{fill:#F4FF00;stroke:#000000;stroke-width:1.6329;stroke-linecap:round;stroke-miterlimit:10;}
	.st4{fill:#F4FF00;stroke:#000000;stroke-width:0.8233;stroke-linecap:round;stroke-miterlimit:10;}
	.st5{stroke:#000000;stroke-width:0.9461;stroke-miterlimit:10;}
	.st6{display:none;}
	.st7{display:inline;}
	.st8{fill:#FFFF00;}
	.st9{clip-path:url(#SVGID_2_);}
	.st10{clip-path:url(#SVGID_2_);fill:#FFFF00;}
</style>
<g id="Layer_2">
	<path class="st0" d="M391.4,505.4L240.7,581L89.9,505.4c-34.6-17.3-56.3-51.6-56.3-88.9v-363h414v363
		C447.7,453.8,426,488,391.4,505.4z"/>
	<path class="st1" d="M261.1,292.5c26.1,4.4,59.9-4.6,70.2-12.8c-30.5-2.7-50.6-32.7-52.8-39.2c18,2.7,26.7,0.5,33.2-8.7
		c-19.1,0.5-46.8-25.6-44.1-33.2c10.9,2.2,18.5,0,26.1-8.7c-29.9-2.7-37.6-23.4-39.7-31c12.5,3.8,18.5-1.1,23.9-6
		c-20.1,1.6-31-18.8-35.4-26.1c-3.8,5.3-15.3,27.8-35.4,26.1c5.4,4.9,11.4,9.8,23.9,6c-2.2,7.6-9.8,28.3-39.7,31
		c7.6,8.7,15.2,10.9,26.1,8.7c2.7,7.6-25,33.7-44.1,33.2c6.5,9.3,15.2,11.4,33.2,8.7c-2.2,6.5-22.3,36.5-52.8,39.2
		c10.3,8.2,44.1,17.1,70.2,12.8c-1.4,18.2,5.4,50.3-32.7,43.8c2.4,9.8,19.1,9.8,25.6,8.7c7.9-1.3,10.1-4.6,15.8-12
		c-2.1,14.7-3.2,20.2,9.4,35.7c0,0.3,0.7,0.3,0.8,0c12.6-15.4,11.6-21,9.4-35.7c5.7,7.3,7.9,10.6,15.8,12c6.4,1.1,23.1,1.1,25.6-8.7
		C255.7,342.8,262.5,310.7,261.1,292.5z"/>
	<path class="st1" d="M192,313.1c26.1,4.4,59.9-4.6,70.2-12.8c-30.5-2.7-50.6-32.7-52.8-39.2c18,2.7,26.7,0.5,33.2-8.7
		c-19.1,0.5-46.8-25.6-44.1-33.2c10.9,2.2,18.5,0,26.1-8.7c-29.9-2.7-37.6-23.4-39.7-31c12.5,3.8,18.5-1.1,23.9-6
		c-20.1,1.6-31-18.8-35.4-26.1c-3.8,5.3-15.3,27.8-35.4,26.1c5.4,4.9,11.4,9.8,23.9,6c-2.2,7.6-9.8,28.3-39.7,31
		c7.6,8.7,15.2,10.9,26.1,8.7c2.7,7.6-25,33.7-44.1,33.2c6.5,9.3,15.2,11.4,33.2,8.7c-2.2,6.5-22.3,36.5-52.8,39.2
		c10.3,8.2,44.1,17.1,70.2,12.8c-1.4,18.2,5.4,50.3-32.7,43.8c2.4,9.8,19.1,9.8,25.6,8.7c7.9-1.3,10.1-4.6,15.8-12
		c-2.1,14.7-3.2,20.2,9.4,35.7c0,0.3,0.7,0.3,0.8,0c12.6-15.4,11.6-21,9.4-35.7c5.7,7.3,7.9,10.6,15.8,12c6.4,1.1,23.1,1.1,25.6-8.7
		C186.5,363.5,193.3,331.4,192,313.1z"/>
	<path class="st1" d="M326.4,316.4c26.1,4.4,59.9-4.6,70.2-12.8c-30.5-2.7-50.6-32.7-52.8-39.2c18,2.7,26.7,0.5,33.2-8.7
		c-19.1,0.5-46.8-25.6-44.1-33.2c10.9,2.2,18.5,0,26.1-8.7c-29.9-2.7-37.6-23.4-39.7-31c12.5,3.8,18.5-1.1,23.9-6
		c-20.1,1.6-31-18.8-35.4-26.1c-3.8,5.3-15.3,27.8-35.4,26.1c5.4,4.9,11.4,9.8,23.9,6c-2.2,7.6-9.8,28.3-39.7,31
		c7.6,8.7,15.2,10.9,26.1,8.7c2.7,7.6-25,33.7-44.1,33.2c6.5,9.3,15.2,11.4,33.2,8.7c-2.2,6.5-22.3,36.5-52.8,39.2
		c10.3,8.2,44.1,17.1,70.2,12.8c-1.4,18.2,5.4,50.3-32.7,43.8c2.4,9.8,19.1,9.8,25.6,8.7c7.9-1.3,10.1-4.6,15.8-12
		c-2.1,14.7-3.2,20.2,9.4,35.7c0,0.3,0.7,0.3,0.8,0c12.6-15.4,11.6-21,9.4-35.7c5.7,7.3,7.9,10.6,15.8,12c6.4,1.1,23.1,1.1,25.6-8.7
		C321,366.8,327.8,334.6,326.4,316.4z"/>
	<g>
		<path d="M296.5,480.4c-18.3-1.6-32.1-15-32.1-15s15.9-10.8,34.3-9.2c18.3,1.6,32.1,15,32.1,15S314.8,481.9,296.5,480.4z"/>
		<path d="M303.7,445.3c-12.4,13.4-31.6,16.1-31.6,16.1s1-19.1,13.4-32.5c12.4-13.4,31.6-16.1,31.6-16.1S316.2,431.8,303.7,445.3z"
			/>
		<path d="M332.3,463c-17.3,2.2-32.9-8.4-32.9-8.4s12.4-14.1,29.7-16.3c17.3-2.2,32.9,8.4,32.9,8.4S349.6,460.8,332.3,463z"/>
		<path d="M368.1,437.5c-16.7,5.4-33.7-0.6-33.7-0.6s10.1-14.7,26.8-20.1c16.7-5.4,33.7,0.6,33.7,0.6S384.8,432.1,368.1,437.5z"/>
		<path d="M392.1,406.4c-13.6,10.2-30.2,11.3-30.2,11.3s5.4-15.5,19.1-25.8c13.6-10.2,30.2-11.3,30.2-11.3S405.7,396.2,392.1,406.4z
			"/>
		<path d="M414.3,371.8c-9,10.8-23.3,13.7-23.3,13.7s0.1-14.5,9.1-25.3s23.3-13.7,23.3-13.7S423.2,361,414.3,371.8z"/>
		<path d="M341.4,424.5c-9.3,14.7-26.6,20.6-26.6,20.6s-2.2-17.9,7.1-32.6c9.3-14.7,26.6-20.6,26.6-20.6S350.7,409.8,341.4,424.5z"
			/>
		<path d="M429.6,244.7c-1.9,13.8-12.5,23.8-12.5,23.8s-7.6-12.4-5.8-26.2c1.9-13.8,12.5-23.8,12.5-23.8S431.4,230.8,429.6,244.7z"
			/>
		<path d="M420.9,209.4c-0.9,13.8-10.7,24.4-10.7,24.4s-8.5-11.7-7.6-25.5c0.9-13.8,10.7-24.4,10.7-24.4S421.7,195.6,420.9,209.4z"
			/>
		<path d="M409.8,177c1.9,11.9-4.9,22.8-4.9,22.8s-9.8-8.3-11.7-20.2s4.9-22.8,4.9-22.8S407.9,165.1,409.8,177z"/>
		<path d="M387.6,162.5c8,10.5,9.1,23,9.1,23s-11.9-4.4-20-14.9c-8-10.5-9.1-23-9.1-23S379.6,152,387.6,162.5z"/>
		<path d="M430.6,285.8c-3.5,14.6-15.2,24.3-15.2,24.3s-3.7-11.3-2.8-26.2c0.8-12.9,15.7-26.6,15.7-26.6S434.1,271.3,430.6,285.8z"
			/>
		<path d="M394.3,364.4c-2.2,14.7-13.6,25.1-13.6,25.1s-5.2-10.9-5.9-25.7c-0.6-12.8,13.9-27.4,13.9-27.4S396.5,349.7,394.3,364.4z"
			/>
		<path d="M428.7,329.2c-5.7,15.7-20.4,24.9-20.4,24.9s-5.3-16.3,0.4-32.1c5.7-15.7,20.4-24.9,20.4-24.9S434.5,313.4,428.7,329.2z"
			/>
		<path d="M407.6,331.2c2.1,14-5.1,26.6-5.1,26.6s-10.6-10-12.7-23.9c-2.1-14,5.1-26.6,5.1-26.6S405.5,317.2,407.6,331.2z"/>
		<path d="M412.7,293.9c5.3,14.6,0.4,29.7,0.4,29.7s-13.6-8.5-18.9-23.1c-5.3-14.6-0.4-29.7-0.4-29.7S407.4,279.4,412.7,293.9z"/>
		<path d="M412.6,258.1c5.5,13.2,1.6,27.3,1.6,27.3s-12.8-7.3-18.2-20.6c-5.5-13.2-1.6-27.3-1.6-27.3S407.1,244.9,412.6,258.1z"/>
		<path d="M406.9,221.5c5.8,11.7,2.9,25,2.9,25s-12.4-5.8-18.2-17.5c-5.8-11.7-2.9-25-2.9-25S401.1,209.7,406.9,221.5z"/>
		<path d="M399.5,192.6c8.1,10.1,9.3,22.5,9.3,22.5s-12-3.9-20.2-13.9c-8.1-10.1-9.3-22.5-9.3-22.5S391.4,182.5,399.5,192.6z"/>
		<path d="M372.3,397.8c-6.1,15.6-21,24.5-21,24.5s-5-16.4,1.1-32c6.1-15.6,21-24.5,21-24.5S378.4,382.2,372.3,397.8z"/>
	</g>
	<g>
		<path d="M178.5,477c12.2-1.2,22.6-7.1,31.6-15.2c-10.3-6.2-21.7-10.1-33.8-8.9s-22.7,7.2-31.8,15.1
			C154.9,474.3,166.4,478.2,178.5,477z"/>
		<path d="M171.4,441.6c8.3,8.9,19.3,13.8,31.1,16.2c-1.4-12-5.4-23.6-13.6-32.6c-8.3-9-19.1-13.7-30.9-16
			C159.2,421.2,163.1,432.7,171.4,441.6z"/>
		<path d="M142.9,459.6c11.8,1.5,22.7-2.4,32.7-8.4c-8.2-8.1-18-14.4-29.6-15.9c-11.7-1.5-22.7,2.1-32.7,7.9
			C121.4,451.5,131.1,458.1,142.9,459.6z"/>
		<path d="M107.3,433.4c10.9,3.9,22.4,3.2,33.4,0.1c-7-9-15.6-16.5-26.5-20.4S92,409.7,81,412.6C87.8,421.9,96.3,429.6,107.3,433.4z
			"/>
		<path d="M84.2,401.3c8.4,7.2,18.6,10.9,29.4,12.5c-3.9-10.2-9.9-19.4-18.2-26.6c-8.3-7.1-18.3-11.3-29-13.1
			C70.1,384.6,75.8,394.1,84.2,401.3z"/>
		<path d="M64.1,364.7c5.5,7.8,13.2,12.4,22,15.5c-0.2-9.4-2.4-18.8-7.8-26.6c-5.4-7.7-13.2-12.7-22-15.5
			C56.4,347.5,58.6,356.9,64.1,364.7z"/>
		<path d="M134.1,420.9c6.1,10,15.5,16.5,26.1,20.9c0.6-11.4-1.2-22.8-7.2-32.6c-6-9.8-15.2-16.3-25.6-21
			C126.6,399.6,128,411,134.1,420.9z"/>
		<path d="M53.7,236.4c1.1,8.9,5.8,16.7,11.8,23.3c4.4-7.7,7-16.1,5.9-25c-1.1-9-5.8-16.7-11.9-23.3
			C55.1,219.1,52.6,227.5,53.7,236.4z"/>
		<path d="M62.6,202.9c0.5,8.9,4.6,16.9,10.1,23.8c4.8-7.3,8-15.3,7.4-24.3c-0.5-8.9-4.6-17.1-10.1-24C65.2,185.8,62,194,62.6,202.9
			z"/>
		<path d="M73.7,171.8c-1.3,7.9,0.9,15.4,4.5,22.3c5.7-5.3,10.1-11.5,11.5-19.4c1.3-7.9-0.7-15.7-4.3-22.8
			C79.6,157.4,75,163.9,73.7,171.8z"/>
		<path d="M95.6,158c-5.2,6.6-8.1,14.3-9.4,22.5c7.7-3.1,14.5-7.7,19.7-14.3s8.2-14.5,9.5-22.8C107.7,146.7,100.8,151.4,95.6,158z"
			/>
		<path d="M51.9,276.1c2.1,9.4,7.5,17.5,14.1,24.6c2.4-9.2,4.2-16,3.3-26.2c-0.8-8.9-7.7-19.3-14.7-25.8
			C51.2,257.5,49.8,266.7,51.9,276.1z"/>
		<path d="M84.1,358c0.9,10.2,5.5,18.9,12,26.7c3.6-9.3,6.3-16,6.7-26.8c0.3-9.3-5.5-21.1-11.9-28.7C86,338,83.1,347.9,84.1,358z"/>
		<path d="M52.2,319.6c3.2,10.8,9.9,19.8,18.4,26.9c3.2-10.9,4.3-22.4,1.1-33.3c-3.2-11-10-19.2-18.9-26.1
			C49.8,297.9,49.1,308.8,52.2,319.6z"/>
		<path d="M72.8,322.8c-1.9,9.5-0.2,19,3.3,27.9c6.7-6.9,11.7-14.9,13.6-24.4c1.9-9.5,0.3-18.8-3.4-27.7
			C79.6,305.4,74.6,313.3,72.8,322.8z"/>
		<path d="M69.4,284.8c-3.8,9.5-3.7,20-1.8,29.9C76,309,83.2,301.4,87,291.9c3.8-9.5,3.7-19.3,1.4-29.1
			C80,268.4,73.1,275.3,69.4,284.8z"/>
		<path d="M70.2,250c-3.7,8.3-3.9,17.4-2.3,26.3c7.8-4.7,14.5-11,18.2-19.3c3.7-8.3,3.9-17.3,2.1-26.1
			C80.5,235.5,73.9,241.6,70.2,250z"/>
		<path d="M76.1,215.1c-3.9,7.4-4.4,15.6-3.3,23.8c7.4-3.7,14-8.8,17.9-16.2c3.9-7.4,4.4-15.7,3.2-23.8
			C86.5,202.5,80,207.6,76.1,215.1z"/>
		<path d="M83.6,187.4c-5.2,6.2-8.1,13.5-9.4,21.4c7.6-2.6,14.5-6.6,19.7-12.8c5.2-6.2,8.1-13.7,9.4-21.7
			C95.8,177,88.8,181.3,83.6,187.4z"/>
		<path d="M104.1,393.5c3.6,10.7,11.1,18.6,20,25.2c2.6-10.7,3-21.7-0.6-32.2s-10.7-19.1-19.3-26
			C101.3,371.3,100.5,382.8,104.1,393.5z"/>
	</g>
	<g>
		<path d="M249.2,444c0,18.6-12,33.7-12,33.7s-12-15.1-12-33.7s12-33.7,12-33.7S249.2,425.4,249.2,444z"/>
		<path d="M246.4,493.4c0,18.6-12,33.7-12,33.7s-12-15.1-12-33.7s12-33.7,12-33.7S246.4,474.8,246.4,493.4z"/>
		<path d="M276,449.8c-10.8,15.1-29.4,20.3-29.4,20.3s-1-19.3,9.8-34.4c10.8-15.1,29.4-20.3,29.4-20.3S286.8,434.7,276,449.8z"/>
		<path d="M198.5,448c-10-15.7-7.9-34.9-7.9-34.9s18.2,6.3,28.2,22s7.9,34.9,7.9,34.9S208.4,463.7,198.5,448z"/>
		<path d="M266.8,493.4c-17.1-7.3-26.2-24.3-26.2-24.3s18.6-5.1,35.7,2.2s26.2,24.3,26.2,24.3S283.9,500.7,266.8,493.4z"/>
		<path d="M204.5,491.9c-17.9,5-35.7-2.5-35.7-2.5s11.3-15.7,29.2-20.7c17.9-5,35.7,2.5,35.7,2.5S222.4,486.9,204.5,491.9z"/>
	</g>
</g>
<g id="Layer_1">
	<path d="M136.2,184.7c-0.3-2.6,1.4-6.4,4.3-6.2c0.4,7.6,2.7,14.8,10.6,18c5.4,2.2,13,2.6,18.7,1.4c7.2-1.6,13.8-2,21.1-0.3
		c4.9,1.1,9.6,2.2,14.1,4.4c2.7,1.3,5,2.6,7.4,4.4c1.9,1.4,3.7,2.9,6,2.2c6.5-2,0.4-5.2-2.6-6.9c-3.7-2.2-6.4-3.2-10.5-4.1
		c-5.6-1.2-10.8-3.7-16.1-5.9c-4.6-1.8-9.7-2.4-14.7-1.7c-8.4,1.1-24.6,8.1-29-8.4c3,1.9,6.4,1.9,8.9-1.7c-3.6,0-6.2-0.1-7.2-4
		c-1-3.9-0.5-4.8,1-9C139.7,174.4,130.7,172.6,136.2,184.7z"/>
	<path class="st2" d="M163.7,181.1c-0.1,1.9,1.2,5.2,3.7,5.1c-1.2-4.1,0.8-9.4,5.2-9.4c-1.3,2-2,6.9,0.5,8.3
		c0.3-3.5,2.9-6.9,6.2-5.5c-0.5,1.7-0.2,5.1,0.4,6.4c1.5-2.2,4.2-5.1,7.1-3.3c-0.2,1.7-0.8,3.8,0.4,6.4c0.4-2.7,4.6-3.4,6.1-1.8
		c1.3,1.4-0.6,3.9-0.4,6.1c1.3-0.2,3.3-1.4,4.7-0.9c-0.6,1.1-0.9,3.6-0.2,4.6c2.9-3.6,8.6,1.9,8.1,5.3c-3.9,1.5-7.7-1.9-9.3-4.1
		c-0.7,1.1-1.3,2.3-1.5,3.6c-0.1,0.5,0,1.9-0.2,2.3c-1.2,2.3-2.7,0.6-4.1-0.6c-1.1-0.9-2.4-3.8-2.6-0.9c-0.1,1.6-0.1,3.1,0.2,4.5
		c-4.4,0.8-3.2-3.2-4.6-4.9c-1.3,2.4-1.8,4.1-1.8,7.3c-1.1-1.4-2.7-3-3.7-4.5c-0.9-1.3-0.7-2-1.5-3.2c-1.5,5.6-0.6,6.7,1.5,10.6
		c2.4,0,5.4-0.7,7.4-2c3.4-2.2,7.4-2.1,11.3-2.7c5.7-0.8,17.8-0.9,23.6-1.2c0.4-1.9-6.7-6.1-7.9-7.5c-2.3-2.6-5.9-3-7.8-5.9
		c-3.9-5.7-8-11.3-13.9-15c-3.8-2.3-7.9-2.2-12.1-3c-3.5-0.7-7.3-1-10.8-0.1c-1.5,0.4-3.1,0.9-4,2.2
		C163.3,178.5,163.7,180.2,163.7,181.1z"/>
	<path d="M214.3,180.9c-0.5-4.2,5.6-8.3,8.7-10.5c5.8-4,8.1-8.5,12-13.9c-0.1,4.5-0.6,9.3-3.5,13c2,0,4.6-0.8,5.1-2.5
		c-0.3,5.2-4.2,7.5-7.5,11c-2.4,2.5-6.3,6.1-9.9,6.4C216.7,184.7,215.9,183.1,214.3,180.9z"/>
	<path d="M179.2,277.2c-4.8-1.3-9.4,1.5-12.8-2.7c-2.1-2.6-3.9-6.9-3.5-10.3c0.3-2.3,2.1-8.7,3.9-9.5c1.6-0.7,3.4,0,4.8-1.5
		c1.2-1.3,3.3-5.5,2.2-6.8c-1-1.1,0.3-7.2-5.7-9.4c1.4,2.8,1.3,4.8,0.5,7.3c-1.1-0.4-2.8-0.2-3.2-1.3c-0.4-1.1,0.8-3.3,0.8-4.6
		c0.2-3.8-0.5-5.2-3.4-6c0.4-2.3,0.1-5-1.9-6.7c-1.8-1.4-3.1-0.8-5.9-0.7c3.3,2,3,4.7,2.2,7.2c-0.8,2.2-2.6,1.3-3.5,3.8
		c-0.6,1.6-0.3,2.3,0.6,4.9c0.7,1.8,0.4,4.8-2.2,4c-0.6-5.1-7-9.2-9.7-4.3c1.4-0.4,2.7,0.4,3.7,1.7c0.9,1.2,1.4,2.4,0.8,4
		c-0.5,1.5-2.8,0.8-3.5,3.2c-1.3,4.2,2,6.5,4.4,8.8c2.2,2.1,3.4,7.5,1.6,11.1c-0.8,1.7-3.7,1.4-4.4,2.8c-1.6,3.4,0.8,4.6,1.2,6.2
		c1.1,4.3-3.1,6.2-6.1,3.3c1.1,4.2,2,4.6,4.6,5c2.2,0.4,3.7-0.6,5.2-2c0.9-0.9,1.9-2.6,3.1-3c1.7-0.5,2.2-0.7,3.2-4.2
		c0.8,3.5,2,6.6,3.6,9.4c2.1,3.6,3.5,7.4,6.5,10.4c3,3,9.3,3.9,12.8,2.1c2.4-1.3,6.3-2.8,7-5.7C186.8,290.1,182.4,278.4,179.2,277.2
		z"/>
	<path d="M235.2,242.6c-0.6,1.2-2.5,1.5-3.4,0.7c-1.7-1.5-1-6.5-0.8-8.3c1.3-9.8,7.8-18.6,12.9-26.7c5.9-9.5,13.2-18,20.4-26.6
		c6.6-7.8,11.9-14.3,20.6-19.9c3.5-2.3,6.9-4.9,10.6-6.8c2.1-1.1,4.6-1.7,6.4-3.2c-5.4,4.3-11.7,10.1-15.3,16
		c-3.3,5.3-4.2,12.2-4.4,18.3c-0.1,2.1,0.4,4.4-0.5,6c-1.3,2.1-4.7,4.1-6.4,6.2c-2.8,3.5-5.6,7.1-8.3,10.8
		c-5,6.8-10.4,12.7-16.2,18.7c-2.3,2.3-4,5.2-6.4,7.5c-2.1,2-5.7,3.8-7.2,6.3C236.6,242.6,236.8,243.8,235.2,242.6z"/>
	<path d="M246.7,307.9c0,3.4,1.3,8.3,0.4,11.5c-1.5,5.4-6.2,10.2-9.1,14.9c-2,3.3-3,5.7-7.4,5.2c-2.4-0.3-5.2-3-7.2-2.2
		c-2.4,1-1.4,6.9-4.4,6.4c-3.3-0.4-7.9-2-6.7,2.9c-5.6,1.1-5.4,7.6-2.2,10.7c0.1-3.7,1.1-6.1,4.2-6.7c-0.1,0.4-0.4,3-0.1,4.2
		c0.1,0.5,0.9,0.4,0.9,1c-0.1,1.4-0.9,2.7-1.2,4.4c-0.6,3.8,1.5,5.4,4.9,6.9c-2.3-3.4-1.4-6.9,0.6-5.8c2.6,1.4,3.2,1.8,5.8-0.6
		c1.2-1.1,1.6-3.4,2.5-4.4c1.5-1.7,3.3-0.6,4.9-0.8c3.8-0.5,6.1-2.2,9.1-4.1c2.9-1.4,6.4,0.4,7.5,0.5c0.7,0.1,1.8-1.3,1.9-1.8
		c2.1-0.1,3.3,1.9,3.3,4c4-3.8,2.2-7.5-1.9-9.5c-0.4-3.7,0-3.5-4.9-4.9c-1-3.6,7.6-7,9.8-7.8c4-1.4,13.1-0.5,12.8-5.7
		c-0.4-6-1.5-10.8,0.8-16.7c1-2.6,3.5-5.7,3.8-8.4c-7.2-1.8-15.2,2.2-21.8,4.5C251.5,306,247.8,308.5,246.7,307.9z"/>
	<path d="M332.1,274.8c-4.7-2.7-6.4-3.5-11.6-4.2c-3.5-0.5-13.8-2.4-17.3-2.3c-8.2,0.3-12.1-0.3-20.1-0.3c-6.3,0-8.8,0.3-15,0.3
		c-6.9,0-14.6-1.1-21.5,0.3c-8,1.6-18.5,3.3-26.9,0.8c-4-1.2-9.9-9.1-1.6-10.6c2.4-0.4,4.6-0.4,5.9,1.6c0.6-3.7-2.8-7.4-8.8-6.1
		c0.2-4.7,0.2-8.4,4.6-10.3c3.8-1.6,5.8,0.5,6.5,3.7c1.9-3,1.5-10.6-3.9-10.7c1.2-2,2.9-3.4,4.3-5.6c1.4-2.1,1.1-6.6,3.5-6.1
		c0.8,0.2,1.5,0.2,2.1,0.2c0.6-1.4,1.4-2.9,2.2-4.8c-0.3-0.2-1.7-1.2-2.1-1.5c0.3-3-0.3-6.9-0.4-8.9c-0.1-5.8,6.5-6,7.6-2.8
		c2.1-5.3-1.2-5.6-6.8-6.5c-1.6-0.3-5.1-1.8-5.4-3.9c-0.3-1.8,0.8-2.1,2.1-2.6c4.9-2,8.6-3.6,13.1-6.3c1.7-1,2.2-2.1,4.1-2.6
		c1.9-0.5,3.9,1.1,4.9-2.9c-4.4,1-8-3-11.5,2.6c0.2-7.6,5.7-4.9,11.5-5c3.2-0.1,7.3-5.1,7.7-8c0.3-2.2,1.4-7.5-1.6-8.7
		c0.5,5.1-9.2,6.8-13.1,7.6c-5.7,1.3-11.7,1.3-17.1,3.9c-2.4,1.2-6.6,5.4-9.3,5.4c-1.8,0.1-2.7-2.9-4.3-3.7c-3.8-2.2-8-4.7-12-6.3
		c-3.7-1.4-9.9-2.5-13.6-1.1c-0.1,1.2-0.8,2.3-0.9,3.5c-1.8-0.8-3.1-1.6-4.9-2.4c-2.5-1.2-5.5-2-8-1.1c-2.2,0.8-4.3,2.4-4.5-1.1
		c-0.2-2.5,2.7-6.6,5.1-7.1c-7.1,0.1-10.2,3.2-10.6,10.3c-6.9-0.5-4.2,8-3.5,11.5c1.1-0.9,1.1-0.5,1.3-0.1c1.6-0.9,2.1-2.7,3.3-3.9
		c1.6-1.5,4.3-2.6,6.4-2.8c6.1-0.4,12.3,2.8,16.7,6.6c4.8,4.1,10.1,8.9,14.4,13.6c2.5,2.7,3.1,3.5,6.5,4.6c2.3,0.8,6.8,2.1,7.9,4.4
		c-2.3,1.4-7.3,0.1-9.8-0.6c-4.1-1.1-7.2-0.5-11.4,0.3c-3.6,0.7-7,2.5-10.3,4.1c-3.7,1.7-7.1,1-11.2,1.4c-0.1,2-0.1,4,1.1,5.7
		c1.2,1.6,3.1,1.7,4.6,1.9c1.9,0.2,2.7,1.3,2.4,2.9c-0.2,1.5-0.7,2.7-2.3,2.4c1,0.9,2.1,1.4,3.2,1.2c1-0.2,2.7-1.6,3-2.7
		c0.8-3,0-4.4-1.6-6c3.1-3.7,8.1-6.4,13-6.8c5-0.4,15.3-1.1,15.2,6c-2.2-0.5-4-1.1-5.9,1.2c-0.9,1.1-1.1,2-1.4,3.3
		c-0.6,2.2-2.7-0.2-5.1,1.4c-1.6,1.1-2.2,2.9-3.1,3.1c-3.3,0.8-4.9,2.9-5.3,5.5c-0.3,2.1-1.2,1.8-5.1,3.5c-4.8,2-5.9,3.3-6.9,7.3
		c-0.8,3.3,1.2,4.5,1.6,7c-4.8,2.6-7,4.4-8,10.5c-0.3,2,0.1,3.7,0.5,6.2c0.2,1.1,1,2.1,1,3.1c0.1,1.7-1.4,3.5-2.1,5.2
		c-0.6,1.6-1,4.8-0.7,6.3c0.6,2.9,2.6,4.7,5.1,6.1c1.8,1,1.8,1.3,1.7,3.5c-0.1,2.1-0.6,3,1.2,6.3c1,1.9,2.3,2.4,4.2,3.1
		c2.9,1,2.3,1,4.2,3.9c6.5,9.9,20.5,11.8,31.7,12.5c3.7,0.3,5.1,1.7,8.7,0.8c2.2-0.5,6.4-1.9,8.7-2.3c4-0.8,8.1-0.3,12.2-1.5
		c2.6-0.7,7.6-3.4,8.5-6c6.3,2.4,15.7-1.1,18.3-2.2c7.4-3,11.8-7,18.8-10.8c3.9-2.1,10.1-1.4,14.4-1.7c5.2-0.4,15.8-0.3,19.6,6.3
		c4,6.8-1.4,9.5-6.8,13.6c-3.6,2.7-9.1,4.3-13.3,6c-4,1.6-11.5,3.6-15.8,4.3c-9.2,1.4-12.5,1.2-17.1,1.6c-7.7,0.6-9.7,0-17.4,0.3
		c-8.6,0.3-17.2-1.7-25.9,0.5c-5.7,1.5-11,8.3-11.7,14.2c-1,8.7,7.1,16.3,10.6,18.2c2.8,1.5,7,5.4,9.9,6.7c3.8,1.7,8.2,4.3,8.6,4.1
		c3.1,1.5,11.6,6.1,13.9,7.6c3.6,2.3,9.4,9.7,8.7,14.1c-2.3,0.5-5.8,1.2-8.3,0.6c-3.3-0.9-4.2-4.2-5.8-6.5
		c-3.3,9.5,3.5,14.9,8.4,15.2c3.2,0.2,7.6,1.1,10.3,2.7c3.1,1.8,8.5,8.4,12,9.5c2.8,0.8,9.7,1.3,11.1-2.1
		c-9.2,0.5-14.9-5.2-14.1-13.4c0.6-6.3,4.7-12.1,11.9-11.7c-0.9-4.1-8.2-5.2-11.9-4.3c-2.5,0.6-5,5.9-6.8,5.2
		c-1.4-0.6-2.7-3.8-3.3-4.9c-1-2.1-1.9-3.8-3.3-5.7c-4.1-6.1-4.6-7.1-10.1-11.2c-4.5-3.4-14.5-5.3-19.2-8.7c-3.1-2.2-6.8-4-9.6-6.5
		c-2.5-2.2-4.2-5.7-3.6-9.2c0.8-4.2,5.1-4.6,8.7-5.2c5.7-1,11.1,0.8,16.8,0.8c6.8,0,13.6,0.4,20.4,0.8c7.5,0.3,14.6-1,22-1
		c6.6,0,13.6,0.4,20-1.4c13.6-3.7,29.7-15.1,30.1-30.5C350.7,289.8,340.9,279.7,332.1,274.8z"/>
	<path d="M272,298c2,3.3,6.1,5.7,8.9,8.2c1.7,1.5,3,3.4,4.7,5c1.8,1.8,4,3.7,6.5,4.5c2.8,0.8,5.4,0.7,8.1,1.7
		c4.9,1.8,10.2,4.5,13.7,8.6c2.7,3.2,4.6,8.6-0.8,9c-3.2,0.2-6.5,0.1-9.5-0.5c-2.5-0.5-3.8-1-4.7,2.1c-4-0.7-8.3,6-6,10.4
		c1.1-2.4,3.1-3.6,5.7-4c-0.6,3.6,3.8,3.2,6,3.8c-2.1,1.6-4.9,2.6-3.6,4.4c0.9,1.3-3.8,3.5,1.3,8.2c0.1-3.3,0.5-4.7,3-5.2
		c1.7-0.4,3.9,1.9,6,1.7c3.8-0.3,3.5-1.5,3.5-4.8c0-2.8,1.1-6.1,2.8-8.4c-0.1,3.3-1.7,11,4.1,10.6c4.8,5.1,8.3,1.8,11.1-1.1
		c-2.6,0.4-5.3,0-5.7-3.2c8-4.2-2.1-7-0.2-11.5c1.4,0.6,3.8,0.6,5.3,0.3c1.9-0.4,1.6-1.7,2.8-2.2c2.8-1.3,4,1.3,3.9,4.3
		c2.9-1.6,1.6-7.8-1.7-9.5c-3-1.5-0.3-1.9-7.6-2.8c-0.7-0.1-3.6,0.1-4.7-2.1c-0.9-1.8-0.9-2-0.2-3.5c0.6-1.4,6.6-4.1,3.1-6.6
		c1.5-1.5,2.6-2.9,4.8-1.9c-1.5-4.2-5.8-3.6-7.5-1.4c-0.9-0.4-1.5-0.9-3.1-0.6c-1.9,0.4-1.8,3.3-2.2,4.9c-0.9,3.5-5.3-4.8-5.9-6.7
		c-1.9-5.4-4.5-11.5-8.2-15.9c-3.1-3.6-7.1-6.4-10.2-9.9"/>
	<path d="M206.9,290c0.1,0.3,0.2-0.2-0.5,0.6c-0.9,1.1-1.9,2.1-2.9,3.3c-2.2,2.7-4.5,4.7-5.4,8.1c-1.1,4-1.2,7.6-1,11.6
		c0.2,4.4-3.5,14.9-9.8,15.8c-1.2,2.4-0.4,6.8-3.8,7.4c-2.4,0.4-4.6-2.9-6.7-4.2c-2.5-1.5-4.7-3.2-7.7-3c-3.7,0.3-1,1.1-5.2,1.6
		c-3.5,0.4-5.8,5.7-3,11.2c1.9-2.9,3.1-5.7,5.9-6.1c0.6,0-1.3,6.6,4.7,5.8c2.3-0.3,2.9-0.8,5.3,0.2c1.6,0.6,3,1.8,4.7,1.6
		c-2,0.6-2.1,2.1-3.2,3.3c-1.4,1.4-3.3,1.1-4.6,2.3c-3.3,2.8-0.1,6-0.7,6.9c-3.6,6.2,2.6,8.8,5.9,9.2c-1.3-1.5-2.3-4.8-0.4-6.2
		c1.2-0.9,3.7,0,5.1-0.3c3.2-0.7,1.5-4.3,1.6-6.5c0.1-1.7,0.4-5.2,2.7-5.4c0.3,4.9-1.4,6.8,3.8,7c-0.3,5.3,10.7,7.2,12.3,2.5
		c-1.2-0.1-7-0.3-4.7-3.3c1.1-1.4,2,0,2.8-2.2c0.8-2.3-1-3.8-2.7-4c-2.1-0.3-3.4-0.4-2.6-3.5c0.4-1.7,1.7-1.9,0.4-3.5
		c2,1,2.7,2.7,6-0.3c1-0.9,1.9-2.8,3.5-2.6c1.9,0.3,1.7,2,1.8,3.7c3.6-3.8,2-6.3,1.3-7.3c-0.6-0.8-2.5-1.2-2.8-1.3
		c-0.4-0.1-1,0-1.7-0.2c-0.8-0.3-0.8-1.7-3.3-1.6c-0.3-5.2,4.3-7.4,8.2-9c2.7-1.1,6.2-1.4,8.2-3.7c1.4-1.7,2.7-3.5,3.8-5.4
		c1.4-2.4,2.3-4.6,3.3-7.3c3-7.4,3-13.8,0.7-21.1"/>
	<path d="M235.5,270.7c4.8-0.1,10-6.3,11.2-10.8c0.8-2.9,1.1-7.1-0.3-10c-2.1-4.2-11.9-6.3-11,0.4c-3.1,0.2-1.8-9.9-1.6-12
		c1.3-11.1,9.3-22.2,17.6-29.2c11.2-9.4,21.2-20.8,33.4-28.9c5.9-3.9,12.5-5.8,18.9-8.7c6.6-3,13.2-5.3,20-7.8
		c5.1-1.9,10-3.2,15.3-4c2.6-0.4,5.9-1.3,8.4-0.6c-6.7,2.8-12.4,8-18.1,12.5c-4.8,3.8-10,9.3-12.7,14.9c-2.2,4.6-2.4,10.4,0.3,14.8
		c3.4,5.5,6.7,4.5,11.9,6.1c-4.6-0.6-9.2,4.4-11.9,7.6c-3.9,4.6-7.9,8.1-8.3,14.3c-0.6,8.4,9.5,19.6,18.1,19.2
		c-7.5-2.3-18.3,1.5-22.4,8.2c-2,3.2-4.9,7-5.4,10.9c-0.2,2,0.5,3.9,0.8,5.9c-8.2-0.7-15.7-0.8-23.1,3.4c-6.2,3.5-9.7,8.2-8.9,15.3
		c-3-3.5-13.7-4.6-18-4.8c-3.3-0.2-9.9,2-11.5,5.2"/>
</g>
<g id="Layer_3">
	<path d="M194.3,72.4c1.5,2.2,4.3,4.6,6.1,6.5c1.7,1.8,3,3.4,4.4,5.6c1,1.6,1.6,2.4,2.1,4.2c0.7,2.5-0.3,5.3,2.9,5.4
		c2.8,0.1,6.1-1.1,8-3c-2.3-1.7-4.8-0.8-5.5-4.4c-0.2-1-0.6-3.2,0.5-3.9c1.9-1.3,2.7,1,2.5,2.4c2,0.3,4.3-2.7,4.5-4.3
		c0.3-2.2,0.2-4.4-1.2-5.9c-3.3-3.5-10.1-3.8-10.9,2.5C206.1,74.4,203.1,71.3,194.3,72.4z"/>
	<path d="M288.4,72.4c-1.5,2.2-4.3,4.6-6.1,6.5c-1.7,1.8-3,3.4-4.4,5.6c-1,1.6-1.6,2.4-2.1,4.2c-0.7,2.5,0.3,5.3-2.9,5.4
		c-2.8,0.1-6.1-1.1-8-3c2.3-1.7,4.8-0.8,5.5-4.4c0.2-1,0.6-3.2-0.5-3.9c-1.9-1.3-2.7,1-2.5,2.4c-2,0.3-4.3-2.7-4.5-4.3
		c-0.3-2.2-0.2-4.4,1.2-5.9c3.3-3.5,10.1-3.8,10.9,2.5C276.6,74.4,279.6,71.3,288.4,72.4z"/>
	<path d="M217.6,90.9c3.1-2.6,4.1-5.3,4.7-9.6c1.8,3.6,4.9,5.1,7.4,6.8c0.6,0.4,2.3,1.1,1.9,1.9c-0.2,0.4-1.4,0.8-1.7,1.1
		c-1,0.7-1.9,1.6-3,2.2c-1.3,0.7-3.7,1.1-5.2,0.8C220.7,93.9,217.4,93.2,217.6,90.9z"/>
	<path d="M234.3,89.3c2.8-3.2,2.9-7-0.8-9.4c-1.1-0.7-3.4-2.2-4.6-1.1c-0.9,0.9-0.6,3-0.5,4c-2.4-1.3-3.9-2.3-4.7-4.7
		c-0.6-1.8-0.8-3.1-0.6-5c0.1-1.5,1.4-2.9,2.7-3.9c1.6-1.3,3.6-1.4,5.5-0.8c1,0.3,2.6,1.2,3.9,2.9c2,2.5,3.5,5.4,4.2,5.6
		c-1.7-3.3-4-6.9-4-9.8c0-1.6,0.8-3,1.7-4.3c0.8-1.3,1.7-1.9,2.9-2.9c0.8-0.6,2-1.9,2.5-2.7c0.5,1.3,2,2.2,3,3.2
		c1.3,1.3,2.4,2.4,2.9,4.2c0.6,2.1,1.2,3.9,0.4,6c-1.2,2.8-2.2,3.7-2.8,6.7c1.3-2.8,2.7-4.1,4.5-6.6c1.5-2.1,3.7-2.9,6.4-2.2
		c3.6,1,4.9,3.8,4.9,7.3c0,2.5-0.6,4.2-2.7,5.6c-1.5,1-3.1,2-4.6,1.7c1.3-1.6,0.7-2.3-0.6-2.8c-1.3-0.5-3.2-0.5-4.1,0.5
		c-1.1,1.2-2.4,3.9-2,5.6c0.3,1.3,1.5,2.9,2.1,4.1c-1.2,1.1-3.6,0.9-5.1,1.1c-2.4,0.3-4.6,1.1-6.9,0.7
		C236.9,92.1,234.4,91.6,234.3,89.3z"/>
	<path d="M252.8,89c2-0.6,3.9-2.5,5.5-4c1.3-1.2,2.3-3.2,3.6-4.4c0.1,1.9,0.3,4.9,0.9,6.7c0.6,1.6,1.5,3,3,4.2
		C262.5,92.7,254.5,93.2,252.8,89z"/>
	<path class="st3" d="M274.4,95.5c-1.6,1-4.3,1.7-3.7,5.4c-9.8,3.1-29.5,1.3-29.5,1.3s-21.1-0.9-29.9-2.7c-0.8-0.2-2.4-0.8-2.2-1.6
		c0.2-1.2-0.5-1.8-1.1-2.5c0-3.7,14.9-6.7,33.2-6.7S274.4,91.8,274.4,95.5z"/>
	<path class="st3" d="M241.2,91.7c-17.6,0-31.9,3-31.9,6.6c2.2,3.5,8.7-1,8.1,2.6c9.4,3.1,23.8,4,23.8,4s14.4-0.9,23.8-4
		c-0.6-3.6,5.9,0.9,8.1-2.6C273.1,94.6,258.8,91.7,241.2,91.7z"/>
	<path d="M273.5,101c-1.6,1-2.7,1.3-2,5.2c-9.4,3.3-29.8,1.8-29.8,1.8s-22.2-0.8-29.6-2.9c0.5-2.7-1-3.7-2.2-4.2
		c0-3.9,14.3-7,31.8-7S273.5,97.1,273.5,101z"/>
	<ellipse class="st4" cx="241.7" cy="107.1" rx="31.8" ry="7.5"/>
	<ellipse class="st5" cx="241.7" cy="108.3" rx="30.6" ry="6.2"/>
	<ellipse class="st1" cx="242.3" cy="109.3" rx="29.6" ry="4.8"/>
</g>
<g id="Layer_4" class="st6">
	<g class="st7">
		<path class="st8" d="M207,79.6l0.2,1.3c0,0.4,0,0.8,0,1.3c0,0.8,0.2,1.7,0.4,2.5c0.2,0.8,0.6,1.6,1,2.3c0.2,0.3,0.5,0.7,0.7,1
			l0.3,0.6c0.1,0.2,0.2,0.4,0.4,0.6c-0.4-0.1-0.8-0.4-1.3-0.6c-0.3-0.3-0.6-0.7-0.8-1.1c-0.5-0.8-0.9-1.6-1.1-2.5
			c-0.2-0.9-0.4-1.8-0.4-2.7c0-0.5,0-0.9,0-1.4C206.6,80.5,206.8,80,207,79.6z"/>
	</g>
	<g class="st7">
		<path class="st8" d="M211.4,85.6c-0.7-0.3-1.2-0.8-1.7-1.4c-0.4-0.7-0.6-1.4-0.7-2.2c-0.1-0.8,0.1-1.6,0.4-2.3
			c0.4-0.7,0.9-1.3,1.4-1.8c0.6-0.5,1.2-0.9,1.9-1.2c0.8-0.3,1.6-0.3,2.4,0c0.4,0.1,0.7,0.3,1.1,0.5c0.4,0.2,0.7,0.6,0.9,0.9
			c0.1,0.4,0.1,0.9,0,1.2c-0.1,0.4-0.4,0.7-0.8,0.8c0.5-0.5,0.3-1.3,0-1.7c-0.1-0.3-0.3-0.5-0.5-0.6c-0.3-0.2-0.6-0.3-0.9-0.4
			c-0.6-0.2-1.3-0.2-1.8,0c-0.6,0.3-1.2,0.6-1.7,1c-1,0.9-1.7,2.1-1.5,3.4c0.1,0.6,0.3,1.3,0.6,1.9C210.6,84.5,211,85.1,211.4,85.6z
			"/>
	</g>
	<g class="st7">
		<path class="st8" d="M226.2,77.3c-0.4-0.6-0.8-1.3-0.7-2.1c0.2-0.9,0.9-1.5,1.7-1.7c0.7-0.3,1.5-0.3,2.3-0.2
			c0.7,0.1,1.5,0.3,2.1,0.6c1.4,0.5,2.6,1.4,3.6,2.4c0.5,0.5,1,1,1.5,1.6c0.4,0.6,0.7,1.3,1,1.9c-0.5-0.5-1.1-1-1.6-1.4
			c-0.4-0.5-0.9-1-1.4-1.5c-1-0.9-2.1-1.7-3.4-2.2c-1.2-0.5-2.6-0.7-3.8-0.4c-0.6,0.2-1,0.6-1.1,1.1C226,75.8,226.1,76.6,226.2,77.3
			z"/>
	</g>
	<g class="st7">
		<path class="st8" d="M232.5,67.2c0.4,0.4,0.9,0.7,1.3,1.1l1,1.3c0.6,0.9,1.3,1.8,1.9,2.7c0.6,0.9,1.2,1.9,1.7,2.9
			c0.3,0.5,0.5,1,0.7,1.5c0.1,0.6,0.2,1.1,0.2,1.7c-0.2-0.2-0.3-0.5-0.5-0.7l-0.5-0.7c-0.2-0.5-0.4-1-0.7-1.5
			c-0.5-1-1.1-1.9-1.7-2.8c-0.6-0.9-1.2-1.8-1.9-2.7l-1-1.3C232.9,68.3,232.7,67.7,232.5,67.2z"/>
	</g>
	<g class="st7">
		<path class="st8" d="M242.6,61.9c0.2,0.9,0.3,1.9,0.3,2.8c0.1,0.9,0.2,1.9,0.2,2.8c0,1.9,0.1,3.8,0.1,5.7c0,1.9-0.1,3.8-0.2,5.7
			l-0.2,2.8c0,0.5-0.2,0.9-0.2,1.4c-0.1,0.5-0.2,0.9-0.3,1.4c-0.1-0.5-0.1-1-0.2-1.4c0-0.5-0.2-1-0.1-1.4l0.2-2.8
			c0.1-1.9,0.2-3.8,0.2-5.6c0-1.9-0.1-3.8-0.1-5.7c-0.1-0.9,0.1-1.9,0.2-2.8C242.5,63.7,242.6,62.8,242.6,61.9z"/>
	</g>
	<g class="st7">
		<path class="st8" d="M253.1,65.9c-0.5,0.5-0.8,1-1.2,1.5c-0.4,0.4-0.9,0.9-1.3,1.4c-0.8,1-1.5,2.1-2.2,3.2
			c-0.6,1.1-1.2,2.3-1.6,3.5c-0.2,0.6-0.4,1.2-0.5,1.8l-0.3,0.9c-0.1,0.3-0.2,0.6-0.3,0.9c-0.1-0.3-0.1-0.7-0.1-1l0-1
			c0.1-0.7,0.3-1.3,0.5-1.9c0.4-1.3,1-2.5,1.7-3.6c0.7-1.1,1.4-2.2,2.2-3.3c0.4-0.5,0.9-1,1.3-1.5C251.9,66.5,252.5,66.2,253.1,65.9
			z"/>
	</g>
	<g class="st7">
		<path class="st8" d="M247.1,80.6c0.2-0.8,0.4-1.5,0.6-2.3c0.3-0.7,0.7-1.4,1.1-2.1c0.4-0.7,0.9-1.3,1.4-1.9c0.5-0.6,1.2-1.1,2-1.5
			c0.8-0.3,1.6-0.5,2.4-0.4c0.4,0,0.8,0.1,1.3,0.2c0.4,0.2,0.8,0.4,1.1,0.7c0.3,0.3,0.6,0.6,0.7,1.1c0,0,0.1,0.2,0.1,0.2l0,0.2
			l0,0.3c0,0.2,0,0.4,0,0.6c-0.1,0.8-0.5,1.6-0.8,2.3c0-0.8,0.1-1.5,0-2.3c0-0.2,0-0.4,0-0.5l0-0.3l0-0.1c0-0.1,0,0,0-0.1
			c-0.1-0.3-0.3-0.6-0.6-0.8c-0.2-0.2-0.5-0.4-0.8-0.5c-0.3-0.1-0.7-0.1-1-0.2c-0.7,0-1.4,0.1-2.1,0.4c-0.7,0.3-1.2,0.7-1.7,1.2
			c-0.5,0.6-0.9,1.2-1.3,1.8c-0.4,0.6-0.7,1.3-1.1,2C247.9,79.4,247.5,80,247.1,80.6z"/>
	</g>
	<g class="st7">
		<path class="st8" d="M267.4,79.7c-0.2-0.5-0.2-1.1,0-1.7c0.2-0.6,0.8-1,1.4-1.1c0.6-0.1,1.3,0,1.8,0.3c0.5,0.3,0.9,0.7,1.3,1.2
			c0.6,0.9,1.1,1.9,1.5,2.9c0.2,0.5,0.3,1.1,0.4,1.6c0,0.6-0.2,1.1-0.4,1.6c-0.1-0.5-0.3-1-0.4-1.5c0-0.5-0.2-1-0.3-1.5
			c-0.3-0.9-0.8-1.9-1.3-2.7c-0.3-0.4-0.6-0.7-1-1c-0.4-0.2-0.8-0.3-1.2-0.2c-0.2,0-0.4,0.1-0.5,0.2c-0.1,0.1-0.3,0.3-0.5,0.4
			C267.7,78.7,267.4,79.1,267.4,79.7z"/>
	</g>
	<g class="st7">
		<path class="st8" d="M278.4,77.1c0.2,0.6,0.3,1.2,0.3,1.9c-0.1,0.6-0.2,1.2-0.4,1.8c-0.3,1.2-0.8,2.4-1.4,3.5
			c-0.6,1.1-1.2,2.2-1.9,3.2c-0.3,0.5-0.7,1-1.1,1.5c-0.5,0.4-0.9,0.8-1.5,1.2c0.3-0.6,0.5-1.1,0.8-1.7c0.4-0.5,0.7-1,1-1.5
			c0.7-1,1.3-2,1.8-3.1c0.5-1.1,1-2.2,1.3-3.3c0.2-0.6,0.3-1.2,0.4-1.7C278.1,78.3,278.2,77.7,278.4,77.1z"/>
	</g>
	<g class="st7">
		<g>
			<path class="st8" d="M209.4,211.7c5.3-0.3,17.1,0.9,17.1-7.2c0-1.2-1.8-1.2-1.8,0c0,6.3-11.1,5.2-15.2,5.4
				C208.2,209.9,208.2,211.8,209.4,211.7L209.4,211.7z"/>
		</g>
	</g>
	<g class="st7">
		<g>
			<path class="st8" d="M218.9,211.2c7.8,3.8-2.1,11-5,13.5c-2.9,2.4-5.1,5.2-7,8.5c-3.9,6.5-8.2,13.5-10.4,20.9
				c-1.7,5.8-2.7,12.1-0.6,17.9c2.4,6.3,5,13.8,10.7,17.9c-0.1-0.5-0.1-1-0.2-1.4c-5.6,6.2-9.2,13.4-10.7,21.5
				c-0.2,1.2,1.5,1.7,1.8,0.5c1.5-7.8,4.9-14.8,10.3-20.7c0.4-0.5,0.3-1.1-0.2-1.4c-4.3-3.1-5.8-7.7-7.9-12.3
				c-2.1-4.6-3.6-8.5-3-13.6c1-8.4,4.7-15.4,8.7-22.7c2.2-4,4.3-8.3,7.5-11.6c2.5-2.6,5.9-4.2,8.2-7c2.8-3.5,3.3-9.1-1.3-11.4
				C218.8,209.1,217.8,210.7,218.9,211.2L218.9,211.2z"/>
		</g>
	</g>
	<g class="st7">
		<g>
			<path class="st8" d="M189.7,302.8c0.8-8.2,7.6-13.9,15.8-13.4c1.2,0.1,1.2-1.8,0-1.8c-9.3-0.5-16.8,6.1-17.7,15.3
				C187.8,304,189.6,304,189.7,302.8L189.7,302.8z"/>
		</g>
	</g>
	<g class="st7">
		<g>
			<path class="st8" d="M184.7,298.1c-2.5-4.9-3.2-12.5,2.5-15.6c3.9-2.2,8.6-2.4,12.9-2c1.2,0.1,1.2-1.7,0-1.8
				c-5.3-0.5-12.9,0-16.6,4.5c-3.8,4.7-2.9,11-0.4,15.9C183.7,300.1,185.3,299.2,184.7,298.1L184.7,298.1z"/>
		</g>
	</g>
	<g class="st7">
		<g>
			<path class="st8" d="M183,284.7c-3.7,0.4-5.9-0.8-7.7-3.9c-1.2-2-2.2-4.3-2.7-6.6c-0.2-1.2-2-0.7-1.8,0.5c0.6,3,2,6,3.8,8.5
				c2.1,2.8,4.8,3.7,8.4,3.3C184.1,286.4,184.1,284.6,183,284.7L183,284.7z"/>
		</g>
	</g>
	<g class="st7">
		<g>
			<path class="st8" d="M177.2,268.6c5.2-3.3,10.7-4.5,16.8-2.8c1.1,0.3,1.6-1.5,0.5-1.8c-6.5-1.8-12.6-0.5-18.2,3
				C175.3,267.6,176.2,269.2,177.2,268.6L177.2,268.6z"/>
		</g>
	</g>
	<g class="st7">
		<g>
			<path class="st8" d="M182.2,246.4c1.6,1.9,3.9,2.7,6.3,3.5c3.2,1.1,6.3,2,9.7,1.8c1.2,0,1.2-1.9,0-1.8
				c-4.3,0.2-11.7-1.3-14.7-4.8C182.8,244.2,181.5,245.5,182.2,246.4L182.2,246.4z"/>
		</g>
	</g>
	<g class="st7">
		<g>
			<path class="st8" d="M192.3,231.7c3.4,2.8,7.7,7.4,12.3,7.5c1.2,0,1.2-1.8,0-1.8c-2.2-0.1-4.2-1.7-5.9-2.9
				c-1.8-1.3-3.4-2.7-5.1-4.1C192.7,229.6,191.4,230.9,192.3,231.7L192.3,231.7z"/>
		</g>
	</g>
	<g class="st7">
		<g>
			<path class="st8" d="M205.2,221.4c1.5,2.8,3.1,5.4,5.4,7.6c0.9,0.8,2.2-0.5,1.3-1.3c-2.2-2.1-3.7-4.6-5.1-7.3
				C206.3,219.4,204.7,220.3,205.2,221.4L205.2,221.4z"/>
		</g>
	</g>
	<g class="st7">
		<g>
			<path class="st8" d="M211.6,214.3c0.5,1.7,2,2.9,3.3,4c1.4,1.1,2.9,2.2,4.6,2.8c1.1,0.4,1.6-1.4,0.5-1.8
				c-1.4-0.5-2.6-1.4-3.7-2.3c-1-0.8-2.4-1.9-2.8-3.2C213,212.7,211.3,213.2,211.6,214.3L211.6,214.3z"/>
		</g>
	</g>
	<g class="st7">
		<g>
			<path class="st8" d="M213.9,177.7c2.4,1.1,4.5,2.6,6.3,4.5c0.3,0.3,1,0.4,1.3,0c4.1-5.1,10.1-7.1,16.2-9c1.1-0.3,0.6-2.1-0.5-1.8
				c-4.4,1.4-9.1,2.8-12.9,5.5c-0.9,0.7-2.7,2.9-3.7,2.9c-0.3,0-1.8-1.6-2.2-1.9c-1.1-0.8-2.3-1.4-3.5-2
				C213.7,175.6,212.8,177.2,213.9,177.7L213.9,177.7z"/>
		</g>
	</g>
	<g class="st7">
		<g>
			<path class="st8" d="M222,192.3c2.4,1.1,3.6,3.7,6.3,4.2c1.2,0.2,1.6-1.5,0.5-1.8c-2.4-0.5-3.7-3.1-5.9-4
				C221.8,190.3,220.9,191.8,222,192.3L222,192.3z"/>
		</g>
	</g>
	<g class="st7">
		<g>
			<path class="st8" d="M225.3,287.9c3.2,5.5,3.2,9.7,1,15.3c-1.7,4.2-3.6,8.2-5.8,12.2c-0.6,1,1,2,1.6,0.9c2.7-5,5.4-10.3,7.1-15.7
				c1.6-5.2,0.3-9-2.3-13.6C226.3,285.9,224.7,286.9,225.3,287.9L225.3,287.9z"/>
		</g>
	</g>
	<g class="st7">
		<g>
			<path class="st8" d="M156.6,233.4c1.1,3.3,5.5,3.8,7.3,0.7c0.6-1-1-2-1.6-0.9c-0.9,1.7-3.3,1.6-3.9-0.3
				C158,231.8,156.2,232.3,156.6,233.4L156.6,233.4z"/>
		</g>
	</g>
	<g class="st7">
		<g>
			<path class="st8" d="M146.4,248.2c2.2,1.9,5.7,0.9,6.6-1.7c0.4-1.1-1.4-1.6-1.8-0.5c-0.5,1.4-2.5,1.9-3.6,0.9
				C146.8,246.1,145.5,247.4,146.4,248.2L146.4,248.2z"/>
		</g>
	</g>
	<g class="st7">
		<g>
			<path class="st8" d="M156.4,257.2c-1.4-1.3-1.1-3.3-1-5c0.2-2,0.3-4,0.5-6c0.1-1.2-1.7-1.2-1.8,0c-0.3,3.6-2,9.4,1,12.3
				C156,259.3,157.3,258,156.4,257.2L156.4,257.2z"/>
		</g>
	</g>
	<g class="st7">
		<g>
			<path class="st8" d="M162.9,253.8c-1.2-2-0.9-7.1,2.1-7.5c1.2-0.1,1.2-2,0-1.8c-4.5,0.5-5.8,6.9-3.7,10.2
				C162,255.7,163.5,254.8,162.9,253.8L162.9,253.8z"/>
		</g>
	</g>
	<g class="st7">
		<g>
			<path class="st8" d="M167.8,245.4c-0.5,2.3,1.1,4.8,3.5,5.2c1.2,0.2,1.7-1.6,0.5-1.8c-1.4-0.2-2.5-1.5-2.2-2.9
				C169.8,244.8,168,244.3,167.8,245.4L167.8,245.4z"/>
		</g>
	</g>
	<g class="st7">
		<g>
			<path class="st8" d="M146.8,280.6c1.4-0.3,2.9,0.1,4,1.1c0.9,0.8,2.2-0.5,1.3-1.3c-1.6-1.5-3.7-2-5.8-1.6
				C145.1,279.1,145.6,280.9,146.8,280.6L146.8,280.6z"/>
		</g>
	</g>
	<g class="st7">
		<g>
			<path class="st8" d="M167.4,331.9c0.4,1.2-0.6,3-1.1,4c-0.7,1.4-1.4,2.7-2.2,4c-0.6,1,1,1.9,1.6,0.9c1.1-1.7,2-3.4,2.8-5.2
				c0.5-1.2,1.2-2.8,0.7-4.2C168.8,330.3,167,330.8,167.4,331.9L167.4,331.9z"/>
		</g>
	</g>
	<g class="st7">
		<g>
			<path class="st8" d="M176.3,345.2c1.9,0.4,4.1-0.5,5.8-1.3c1.6-0.7,3.8-1.8,4.4-3.6c0.4-1.1-1.4-1.6-1.8-0.5
				c-0.4,1.2-2.6,2-3.6,2.5c-1.2,0.5-3,1.4-4.4,1.1C175.7,343.2,175.2,345,176.3,345.2L176.3,345.2z"/>
		</g>
	</g>
	<g class="st7">
		<g>
			<path class="st8" d="M187.4,353.4c-0.6-1.5,0-3.2,0.7-4.6c0.4-0.8,1.4-2.5,2.4-2.6c1.2-0.1,1.2-1.9,0-1.8c-1.9,0.2-3.2,2-4,3.5
				c-1.1,2-1.6,4.3-0.7,6.4C186.3,355.4,187.9,354.4,187.4,353.4L187.4,353.4z"/>
		</g>
	</g>
	<g class="st7">
		<g>
			<path class="st8" d="M169.3,358.6c2-1.6,7.4-3.9,9.1-0.6c0.5,1.1,2.1,0.1,1.6-0.9c-2.3-4.6-9-2-12,0.2
				C167.1,358,168.4,359.3,169.3,358.6L169.3,358.6z"/>
		</g>
	</g>
	<g class="st7">
		<g>
			<path class="st8" d="M193.7,354.6c1.7-1.7,4.5-1.4,6.1,0.3c0.8,0.9,2.1-0.4,1.3-1.3c-2.3-2.4-6.2-2.6-8.7-0.3
				C191.5,354.1,192.8,355.4,193.7,354.6L193.7,354.6z"/>
		</g>
	</g>
	<g class="st7">
		<g>
			<path class="st8" d="M205.1,331.1c-2.5,0.9-3.3,4.1-1.5,6.1c0.8,0.9,2.1-0.4,1.3-1.3c-0.8-0.9-0.4-2.6,0.7-3
				C206.7,332.5,206.2,330.7,205.1,331.1L205.1,331.1z"/>
		</g>
	</g>
	<g class="st7">
		<g>
			<path class="st8" d="M231.8,338.7c-0.6,9.3,10.7,10.8,16.6,14.8c1,0.7,1.9-0.9,0.9-1.6c-5.3-3.6-16.3-4.9-15.7-13.2
				C233.7,337.5,231.9,337.5,231.8,338.7L231.8,338.7z"/>
		</g>
	</g>
	<g class="st7">
		<g>
			<path class="st8" d="M220.9,338.7c1.6,6.1,4.8,11.5,9.5,15.7c0.9,0.8,2.2-0.5,1.3-1.3c-4.5-4-7.6-9-9.1-14.9
				C222.4,337.1,220.6,337.6,220.9,338.7L220.9,338.7z"/>
		</g>
	</g>
	<g class="st7">
		<g>
			<path class="st8" d="M216.5,352.3c0.7-1.9,3.3-1.5,4.8-1.2c1.4,0.2,2.7,0.4,4.1,0.1c1.2-0.2,0.7-2-0.5-1.8
				c-3.3,0.7-8.5-2.2-10.2,2.4C214.3,353,216.1,353.5,216.5,352.3L216.5,352.3z"/>
		</g>
	</g>
	<g class="st7">
		<g>
			<path class="st8" d="M212,348c-0.2,1.4,0.3,2.7,1.3,3.7c0.8,0.9,2.1-0.4,1.3-1.3c-0.6-0.7-0.8-1.5-0.7-2.4
				c0.1-0.5-0.5-0.9-0.9-0.9C212.4,347.1,212.1,347.5,212,348L212,348z"/>
		</g>
	</g>
	<g class="st7">
		<g>
			<path class="st8" d="M217.3,356.7c1.7,0,3,1.7,2.2,3.3c-0.5,1.1,1.1,2,1.6,0.9c1.3-2.9-0.6-6.1-3.8-6.1
				C216.1,354.9,216.1,356.7,217.3,356.7L217.3,356.7z"/>
		</g>
	</g>
	<g class="st7">
		<g>
			<path class="st8" d="M218.7,343.4c1.6,0.4,2.9,1.3,4,2.5c0.8,0.9,2.1-0.4,1.3-1.3c-1.3-1.5-2.9-2.5-4.8-3
				C218,341.3,217.5,343.1,218.7,343.4L218.7,343.4z"/>
		</g>
	</g>
	<g class="st7">
		<g>
			<path class="st8" d="M250.7,348.8c-0.7-0.3-0.5-1.3-0.2-1.7c0.5-0.7,1.3-1.2,2.1-1.6c1-0.6,0.1-2.1-0.9-1.6
				c-1.4,0.7-2.9,1.7-3.2,3.4c-0.2,1.4,0.4,2.7,1.7,3.3C251.3,351,251.8,349.2,250.7,348.8L250.7,348.8z"/>
		</g>
	</g>
	<g class="st7">
		<g>
			<path class="st8" d="M239.3,332.9c5,0.1,10,0.2,15,0.3c1.2,0,1.2-1.8,0-1.8c-5-0.1-10-0.2-15-0.3
				C238.1,331.1,238.1,332.9,239.3,332.9L239.3,332.9z"/>
		</g>
	</g>
	<g class="st7">
		<g>
			<path class="st8" d="M246.6,322.3c6.2,2.6,14.7,1.3,21.3,1.4c1.2,0,1.2-1.8,0-1.8c-6.4-0.1-14.8,1.1-20.8-1.4
				C246,320.1,245.5,321.9,246.6,322.3L246.6,322.3z"/>
		</g>
	</g>
	<g class="st7">
		<g>
			<path class="st8" d="M250.9,294.6c1.5,11.4,13,10.4,21.9,10.7c1.2,0,1.2-1.8,0-1.8c-7.5-0.3-18.7,1.3-20-8.9
				C252.6,293.5,250.7,293.5,250.9,294.6L250.9,294.6z"/>
		</g>
	</g>
	<g class="st7">
		<g>
			<path class="st8" d="M250,311.4c2.1,0.7,4-0.2,5.7-1.5c2.3-1.7,4.4-3.6,6.7-5.4c0.9-0.7-0.4-2-1.3-1.3c-1.5,1.3-3.1,2.5-4.6,3.8
				c-1.7,1.4-3.6,3.4-5.9,2.6C249.4,309.3,248.9,311.1,250,311.4L250,311.4z"/>
		</g>
	</g>
	<g class="st7">
		<g>
			<path class="st8" d="M299.4,318.9c5,0.3,10.7,2.8,13.5,7.2c0.3,0.5,0.6,1,0.9,1.5c1.5,1.2,1.6,2.7,0.2,4.5
				c-0.8,0.1-1.7,0.1-2.5,0.1c-2.9,0.1-5.8,0-8.7,0.1c-1.2,0-1.2,1.8,0,1.8c2.7,0,5.4,0,8.1-0.1c1.4,0,3.3,0.2,4.6-0.5
				c2.2-1.3,1.9-4,0.8-5.9c-3.8-6.1-9.4-10.1-16.7-10.6C298.2,316.9,298.2,318.8,299.4,318.9L299.4,318.9z"/>
		</g>
	</g>
	<g class="st7">
		<g>
			<path class="st8" d="M299.4,336.4c1.4,1.4,0.8,4.8-0.5,6c-0.9,0.8,0.4,2.1,1.3,1.3c2.1-2,2.6-6.5,0.5-8.6
				C299.8,334.2,298.5,335.5,299.4,336.4L299.4,336.4z"/>
		</g>
	</g>
	<g class="st7">
		<g>
			<path class="st8" d="M304,346.9c5.7-2.3,11.6-5,13.9-11.2c0.4-1.1-1.4-1.6-1.8-0.5c-2,5.5-7.5,7.9-12.6,9.9
				C302.4,345.5,302.9,347.3,304,346.9L304,346.9z"/>
		</g>
	</g>
	<g class="st7">
		<g>
			<path class="st8" d="M301.4,350.4c1.8,0.3,5.6,0.6,5.9,2.9c0.2,1.2,1.9,0.7,1.8-0.5c-0.5-3.1-4.7-3.8-7.2-4.2
				C300.7,348.4,300.2,350.2,301.4,350.4L301.4,350.4z"/>
		</g>
	</g>
	<g class="st7">
		<g>
			<path class="st8" d="M321.4,351.5c0.4-2,2.2-4.6,4.6-3.8c1.1,0.4,1.6-1.4,0.5-1.8c-3.3-1-6.2,2.1-6.8,5.1
				C319.4,352.1,321.2,352.6,321.4,351.5L321.4,351.5z"/>
		</g>
	</g>
	<g class="st7">
		<g>
			<path class="st8" d="M329,338.7c-1.5-0.7-2.6-3.5-1.8-5c0.5-1-1-2-1.6-0.9c-1.2,2.3,0,6.4,2.5,7.5
				C329.2,340.8,330.1,339.2,329,338.7L329,338.7z"/>
		</g>
	</g>
	<g class="st7">
		<g>
			<path class="st8" d="M332.6,328.6c-1.4,1.4-1.6,3.5-0.5,5.1c0.9,1.3,2.4,2.9,4.1,2.9c1.2,0.1,1.2-1.8,0-1.8
				c-0.9,0-1.8-1.1-2.3-1.7c-0.8-1-1-2.2,0-3.2C334.7,329,333.4,327.7,332.6,328.6L332.6,328.6z"/>
		</g>
	</g>
	<g class="st7">
		<g>
			<path class="st8" d="M324.4,312.3c1.4-0.5,2.7-1.3,4.1-1.5c1.9-0.2,3.6,1.2,3.7,3.1c0.4-0.3,0.8-0.6,1.2-0.9
				c-1.6-0.6-3.5-1.1-5,0c-1.1,0.8-1.6,2.1-1.2,3.4c0.3-0.4,0.6-0.8,0.9-1.2c-1.6,0-2.8-1.3-2.7-2.9c0-1.2-1.8-1.2-1.8,0
				c-0.1,2.6,1.9,4.7,4.5,4.7c0.6,0,1.1-0.6,0.9-1.2c-0.8-2.3,2.8-1.5,3.9-1.1c0.5,0.2,1.2-0.3,1.2-0.9c-0.1-2.1-1.3-3.9-3.3-4.7
				c-2.5-1-4.6,0.5-6.8,1.3C322.8,310.9,323.3,312.7,324.4,312.3L324.4,312.3z"/>
		</g>
	</g>
	<g class="st7">
		<g>
			<path class="st8" d="M327.4,317c0.4,1.2-1.3,2.9-2.1,3.7c-1.2,1.2-2.5,2-4.2,2c-0.8,0-1.2,1-0.6,1.6c1.2,1.3,1.6,3.1,3.5,3.7
				c2.3,0.8,5.2,0.6,7.5,0.5c1.2-0.1,1.2-1.9,0-1.8c-2,0.1-4.7,0.4-6.5-0.3c-1.6-0.6-2-2.2-3.1-3.4c-0.2,0.5-0.4,1-0.6,1.6
				c2.3,0.1,4.2-1.1,5.8-2.8c1.3-1.4,3-3.2,2.4-5.2C328.8,315.4,327,315.8,327.4,317L327.4,317z"/>
		</g>
	</g>
	<g class="st7">
		<g>
			<path class="st8" d="M315.7,313.8c0.5,0.9,1.1,1.9,1.6,2.8c0.3,0.6,0.6,1.3,1.3,1.6c0.3,0.1,0.6,0.2,0.9,0c1-0.7,1-2.4,0.9-3.4
				c-0.1-1.5-0.3-3.2,0-4.8c0.2-1.2-1.5-1.6-1.8-0.5c-0.2,1.1-0.2,2.2-0.1,3.3c0,0.7,0.1,1.4,0.1,2.1c0,0.3,0,0.6,0,1
				c0,0.2-0.3,1,0,0.7c0.3,0,0.6,0,0.9,0c-0.4-0.2-0.8-1.3-1-1.6c-0.4-0.7-0.8-1.4-1.2-2.1C316.7,311.8,315.1,312.7,315.7,313.8
				L315.7,313.8z"/>
		</g>
	</g>
	<g class="st7">
		<g>
			<path class="st8" d="M297.3,287.1c2.7,1.6,5.1,3.3,7.5,5.3c1.3,1.1,4.2,2.2,4.5,3.9c0.4,1.7,3,1,2.6-0.7c-0.5-2.4-3-3.3-4.7-4.7
				c-2.8-2.2-5.5-4.3-8.6-6.2C297.2,283.8,295.8,286.2,297.3,287.1L297.3,287.1z"/>
		</g>
	</g>
	<g class="st7">
		<g>
			<path class="st8" d="M242.9,291.1c4-8.3,20.8-4.2,25.7,0.7c0.6,0.6,1.5,0.1,1.6-0.6c0.9-15.3,17.4-19.7,30.1-19.7
				c1.2,0,1.2-1.8,0-1.8c-13.8,0-31,5.1-31.9,21.5c0.5-0.2,1-0.4,1.6-0.6c-5.9-6-24-9.9-28.6-0.4
				C240.9,291.2,242.4,292.1,242.9,291.1L242.9,291.1z"/>
		</g>
	</g>
	<g class="st7">
		<g>
			<path class="st8" d="M237.1,271.6c7.5-1.2,14.8-0.9,20.9,4.2c4.6,3.9,7.8,9.5,9.8,15.1c0.3,0.9,1.9,0.9,1.8-0.2
				c-1.5-12.6-7.8-22.9-17.2-31.3c-0.2,0.5-0.4,1-0.6,1.6c15.8-2,29.8,3.7,43.9,10c1.1,0.5,2-1.1,0.9-1.6
				c-14.4-6.5-28.7-12.3-44.8-10.3c-0.7,0.1-1.3,1-0.6,1.6c9,8,15.2,17.9,16.7,30c0.6-0.1,1.2-0.2,1.8-0.2
				c-2.3-6.5-6.1-13-11.8-17.1c-6.3-4.6-13.7-4.7-21.1-3.5C235.5,270,236,271.8,237.1,271.6L237.1,271.6z"/>
		</g>
	</g>
	<g class="st7">
		<g>
			<path class="st8" d="M295.8,269.2c-5.8-5.5-12.4-9.8-19.7-13c-3.2-1.4-6.5-2.7-9.9-3.6c-2.4-0.7-6.4-0.5-8.5-1.5
				c0.1,0.5,0.1,1,0.2,1.4c1-1.2,4.7-1.7,6-2.1c4.4-1.3,8.8-2.2,13.3-2.9c12.9-2,26.4-1.6,39.4-0.4c1.2,0.1,1.2-1.7,0-1.8
				c-13.6-1.3-27.8-1.6-41.4,0.7c-4.7,0.8-9.5,1.9-14.1,3.4c-1.2,0.4-3.7,0.8-4.6,1.9c-0.4,0.4-0.4,1.2,0.2,1.4
				c1.7,0.9,4.4,0.6,6.3,1.1c3.7,0.8,7.3,2,10.8,3.5c7.6,3.2,14.6,7.6,20.6,13.3C295.3,271.3,296.6,270,295.8,269.2L295.8,269.2z"/>
		</g>
	</g>
	<g class="st7">
		<g>
			<path class="st8" d="M317.9,245.6c-11.6-2.2-22.6-6.4-34.5-7.4c-12-1-22.8,0.1-34.3,3.9c0.4,0.4,0.8,0.8,1.1,1.1
				c1.7-4.8,8.3-8.9,12.5-11.3c5.6-3.3,11.3-6.3,17.2-8.9c13.4-5.9,27.5-9.9,41.5-14c1.1-0.3,0.7-2.1-0.5-1.8
				c-15,4.3-30.1,8.6-44.3,15.2c-6.1,2.8-12.3,5.9-17.8,9.7c-3.8,2.6-8.8,6.1-10.4,10.6c-0.2,0.6,0.5,1.3,1.1,1.1
				c11.3-3.8,22-4.8,33.8-3.8c11.7,1,22.5,5.1,34,7.3C318.6,247.6,319.1,245.8,317.9,245.6L317.9,245.6z"/>
		</g>
	</g>
	<g class="st7">
		<g>
			<path class="st8" d="M322,206.9c-13.7-1.2-28.3,2-41.2,6.2c-14.8,4.8-27.5,12.8-38.7,23.6c0.5,0.4,1,0.7,1.4,1.1
				c5.4-10.1,11.6-19.8,19.1-28.5c6.9-7.9,15.3-14.4,23.6-20.8c16.2-12.6,36.5-20,56.2-25.2c1.1-0.3,0.7-2.1-0.5-1.8
				c-19.9,5.3-40.4,12.8-56.8,25.5c-8.4,6.5-16.8,13-23.8,21c-7.6,8.8-13.9,18.6-19.4,28.8c-0.5,0.9,0.7,1.8,1.4,1.1
				c11.4-10.9,24.2-18.8,39.3-23.5c12.4-3.9,26.3-6.9,39.3-5.7C323.2,208.8,323.2,207,322,206.9L322,206.9z"/>
		</g>
	</g>
	<g class="st7">
		<g>
			<path class="st8" d="M233.7,246.9c-2.2-16.8,11.2-30.5,22.3-41.2c9.2-8.9,18.5-18.2,28.9-25.8c1.3-0.9,0-3-1.2-2.1
				c-11.1,8.1-21.2,18.1-31,27.7c-11,10.8-23.7,24.7-21.5,41.4C231.5,248.4,233.9,248.4,233.7,246.9L233.7,246.9z"/>
		</g>
	</g>
</g>
<g id="Layer_4_copy">
	<path class="st8" d="M207,79.6l0.2,1.3c0,0.4,0,0.8,0,1.3c0,0.8,0.2,1.7,0.4,2.5c0.2,0.8,0.6,1.6,1,2.3l0.4,0.5l0.4,0.5l0.3,0.6
		c0.1,0.2,0.2,0.4,0.4,0.6c-0.2-0.1-0.4-0.2-0.6-0.3c-0.2-0.1-0.4-0.2-0.6-0.4c-0.2-0.2-0.3-0.4-0.4-0.5l-0.4-0.6
		c-0.5-0.8-0.9-1.6-1.1-2.5c-0.2-0.9-0.4-1.8-0.4-2.7c0-0.5,0-0.9,0-1.4C206.6,80.5,206.8,80,207,79.6z"/>
	<path class="st8" d="M211.4,85.6c-0.7-0.3-1.3-0.8-1.7-1.4c-0.4-0.7-0.6-1.4-0.7-2.2c-0.1-0.8,0.1-1.6,0.4-2.3
		c0.4-0.7,0.9-1.3,1.4-1.8c0.6-0.5,1.2-0.9,1.9-1.2c0.8-0.3,1.6-0.3,2.4,0c0.4,0.1,0.7,0.3,1.1,0.5c0.4,0.2,0.7,0.6,0.9,0.9
		c0.1,0.4,0.1,0.9,0,1.2c-0.1,0.4-0.4,0.7-0.8,0.8c0.5-0.5,0.3-1.3,0-1.7c-0.1-0.3-0.3-0.5-0.5-0.6c-0.3-0.2-0.6-0.3-0.9-0.4
		c-0.6-0.2-1.3-0.2-1.8,0c-0.6,0.3-1.2,0.6-1.7,1c-1,0.9-1.7,2.1-1.5,3.4c0.1,0.6,0.3,1.3,0.6,1.9C210.6,84.5,211,85.1,211.4,85.6z"
		/>
	<path class="st8" d="M226.2,77.3c-0.4-0.6-0.8-1.3-0.7-2.1c0.2-0.9,0.9-1.5,1.7-1.7c0.7-0.3,1.5-0.3,2.3-0.2
		c0.7,0.1,1.5,0.3,2.1,0.6c1.4,0.5,2.6,1.4,3.6,2.4c0.5,0.5,1,1,1.5,1.6c0.4,0.6,0.7,1.3,1,1.9c-0.5-0.5-1.1-1-1.6-1.4
		c-0.4-0.5-0.9-1-1.4-1.5c-1-0.9-2.1-1.7-3.4-2.2c-0.6-0.2-1.3-0.4-1.9-0.5c-0.7-0.1-1.3-0.1-1.9,0.1c-0.6,0.2-1,0.6-1.1,1.1
		C226,75.8,226.1,76.6,226.2,77.3z"/>
	<path class="st8" d="M232.5,67.2c0.4,0.4,0.9,0.7,1.3,1.1l1,1.3c0.6,0.9,1.3,1.8,1.9,2.7c0.6,0.9,1.2,1.9,1.7,2.9
		c0.3,0.5,0.5,1,0.7,1.5c0.1,0.6,0.2,1.1,0.2,1.7c-0.2-0.2-0.3-0.5-0.5-0.7l-0.5-0.7c-0.2-0.5-0.4-1-0.7-1.5c-0.5-1-1.1-1.9-1.7-2.8
		c-0.6-0.9-1.2-1.8-1.9-2.7l-1-1.3C232.9,68.3,232.7,67.7,232.5,67.2z"/>
	<path class="st8" d="M242.6,61.9c0.2,0.9,0.3,1.9,0.3,2.8c0.1,0.9,0.2,1.9,0.2,2.8c0,1.9,0.1,3.8,0.1,5.7c0,1.9-0.1,3.8-0.2,5.7
		l-0.2,2.8c0,0.5-0.2,0.9-0.2,1.4c-0.1,0.5-0.2,0.9-0.3,1.4c-0.1-0.5-0.1-1-0.2-1.4c0-0.5-0.2-1-0.1-1.4l0.2-2.8
		c0.1-1.9,0.2-3.8,0.2-5.6c0-1.9-0.1-3.8-0.1-5.7c-0.1-0.9,0.1-1.9,0.2-2.8C242.5,63.7,242.6,62.8,242.6,61.9z"/>
	<path class="st8" d="M253.1,65.9c-0.5,0.5-0.8,1-1.2,1.5c-0.4,0.4-0.9,0.9-1.3,1.4c-0.8,1-1.5,2.1-2.2,3.2
		c-0.6,1.1-1.2,2.3-1.6,3.5c-0.2,0.6-0.4,1.2-0.5,1.8l-0.3,0.9c-0.1,0.3-0.2,0.6-0.3,0.9c-0.1-0.3-0.1-0.7-0.1-1c0-0.3,0-0.7,0-1
		c0.1-0.7,0.3-1.3,0.5-1.9c0.4-1.3,1-2.5,1.7-3.6c0.7-1.1,1.4-2.2,2.2-3.3c0.4-0.5,0.9-1,1.3-1.5C251.9,66.5,252.5,66.2,253.1,65.9z
		"/>
	<path class="st8" d="M247.1,80.6c0.2-0.8,0.4-1.5,0.6-2.3c0.3-0.7,0.7-1.4,1.1-2.1c0.4-0.7,0.9-1.3,1.4-1.9c0.5-0.6,1.2-1.1,2-1.5
		c0.8-0.3,1.6-0.5,2.4-0.4c0.4,0,0.8,0.1,1.3,0.2c0.4,0.2,0.8,0.4,1.1,0.7c0.3,0.3,0.6,0.6,0.7,1.1c0,0,0.1,0.2,0.1,0.2l0,0.2l0,0.3
		c0,0.2,0,0.4,0,0.6c-0.1,0.8-0.5,1.6-0.8,2.3c0-0.8,0.1-1.5,0-2.3c0-0.2,0-0.4,0-0.5l0-0.3l0-0.1c0-0.1,0,0,0-0.1
		c-0.1-0.3-0.3-0.6-0.6-0.8c-0.2-0.2-0.5-0.4-0.8-0.5c-0.3-0.1-0.7-0.1-1-0.2c-0.7,0-1.4,0.1-2.1,0.4c-0.7,0.3-1.2,0.7-1.7,1.2
		c-0.5,0.6-0.9,1.2-1.3,1.8c-0.4,0.6-0.7,1.3-1.1,2C248,79.4,247.5,80,247.1,80.6z"/>
	<path class="st8" d="M267.4,79.7c-0.2-0.5-0.2-1.1,0-1.7c0.2-0.6,0.8-1,1.4-1.1c0.6-0.1,1.3,0,1.8,0.3c0.5,0.3,0.9,0.7,1.3,1.2
		c0.6,0.9,1.1,1.9,1.5,2.9c0.2,0.5,0.3,1.1,0.4,1.6c0,0.3-0.1,0.6-0.1,0.8c-0.1,0.3-0.2,0.5-0.3,0.8c-0.1-0.3-0.1-0.5-0.2-0.8
		c-0.1-0.3-0.2-0.5-0.2-0.7c0-0.5-0.2-1-0.3-1.5c-0.3-0.9-0.8-1.9-1.3-2.7c-0.3-0.4-0.6-0.7-1-1c-0.4-0.2-0.8-0.3-1.2-0.2
		c-0.2,0-0.4,0.1-0.5,0.2c-0.1,0.1-0.3,0.3-0.5,0.4C267.7,78.7,267.4,79.1,267.4,79.7z"/>
	<path class="st8" d="M278.4,77.1c0.2,0.6,0.3,1.2,0.3,1.9c-0.1,0.6-0.2,1.2-0.4,1.8c-0.3,1.2-0.8,2.4-1.4,3.5
		c-0.6,1.1-1.2,2.2-1.9,3.2c-0.3,0.5-0.7,1-1.1,1.5c-0.5,0.4-0.9,0.8-1.5,1.2c0.3-0.6,0.5-1.1,0.8-1.7c0.4-0.5,0.7-1,1-1.5
		c0.7-1,1.3-2,1.8-3.1c0.5-1.1,1-2.2,1.3-3.3c0.2-0.6,0.3-1.2,0.4-1.7C278.1,78.3,278.2,77.7,278.4,77.1z"/>
	<g>
		<defs>
			<path id="SVGID_1_" d="M332.1,274.7c-4.7-2.7-6.4-3.5-11.6-4.2c-3.5-0.5-13.8-2.4-17.3-2.3c-1.5,0.1-2.9,0.1-4.2,0.1
				c0-0.3,0-0.5,0-0.8c0.5-3.9,3.5-7.7,5.4-10.9c3.4-5.6,11.4-9.2,18.2-8.9c-7.3-2.5-14.4-11.5-13.9-18.6c0.4-6.2,4.4-9.7,8.3-14.3
				c2.7-3.2,7.3-8.2,11.9-7.6c-5.2-1.6-8.6-0.6-11.9-6.1c-2.7-4.4-2.6-10.3-0.3-14.8c2.7-5.6,7.9-11.1,12.7-14.9
				c5.6-4.5,11.4-9.7,18.1-12.5c-2.5-0.7-5.8,0.2-8.4,0.6c-5.3,0.8-10.3,2.1-15.3,4c-6.8,2.5-13.4,4.8-20,7.8
				c-6.4,2.9-13,4.8-18.9,8.7c-0.8,0.5-1.6,1.1-2.3,1.6c0.5-4.9,1.6-9.9,4.1-14c3.6-5.9,9.9-11.7,15.3-16c-1.8,1.5-4.3,2.2-6.4,3.2
				c-3.7,1.9-7.1,4.6-10.6,6.8c-8.7,5.6-14,12.1-20.6,19.9c-7.2,8.5-14.5,17-20.4,26.6c-5.1,8.2-11.6,16.9-12.9,26.7
				c-0.2,1.8-1,6.9,0.8,8.3c0.4,0.4,1,0.5,1.6,0.4c-0.1,3.2,0.2,6.6,2,6.4c-0.9-6.6,8.9-4.6,11-0.4c1.4,2.9,1.1,7.1,0.3,10
				c-1,3.6-4.5,8.3-8.3,10.1c-6.2,0.8-13,1.1-18.7-0.6c-4-1.2-9.9-9.1-1.6-10.6c2.4-0.4,4.6-0.4,5.9,1.6c0.6-3.7-2.8-7.4-8.8-6.1
				c0.2-4.7,0.2-8.4,4.6-10.3c3.8-1.6,5.8,0.5,6.5,3.7c1.9-3,1.5-10.6-3.9-10.7c1.2-2,2.9-3.4,4.3-5.6c1.4-2.1,1.1-6.6,3.5-6.1
				c0.8,0.2,1.5,0.2,2.1,0.2c0.6-1.4,1.4-2.9,2.2-4.8c-0.3-0.2-1.7-1.2-2.1-1.5c0.3-3-0.3-6.9-0.4-8.9c-0.1-5.8,6.5-6,7.6-2.8
				c2.1-5.3-1.2-5.6-6.8-6.5c-1.6-0.3-5.1-1.8-5.4-3.9c-0.3-1.8,0.8-2.1,2.1-2.6c4.9-2,8.6-3.6,13.1-6.3c1.7-1,2.2-2.1,4.1-2.6
				c1.9-0.5,3.9,1.1,4.9-2.9c-4.4,1-8-3-11.5,2.6c0.2-7.6,5.7-4.9,11.5-5c3.2-0.1,7.3-5.1,7.7-8c0.3-2.2,1.4-7.5-1.6-8.7
				c0.5,5.1-9.2,6.8-13.1,7.6c-5.7,1.3-11.7,1.3-17.1,3.9c-2.4,1.2-6.6,5.4-9.3,5.4c-1.8,0.1-2.7-2.9-4.3-3.7c-3.8-2.2-8-4.7-12-6.3
				c-3.7-1.4-9.9-2.5-13.6-1.1c-0.1,1.2-0.8,2.3-0.9,3.5c-1.8-0.8-3.1-1.6-4.9-2.4c-2.5-1.2-5.5-2-8-1.1c-2.2,0.8-4.3,2.4-4.5-1.1
				c-0.2-2.5,2.7-6.6,5.1-7.1c-7.1,0.1-10.2,3.2-10.6,10.3c-6.9-0.5-4.2,8-3.5,11.5c1.1-0.9,1.1-0.5,1.3-0.1
				c1.6-0.9,2.1-2.7,3.3-3.9c1.6-1.5,4.3-2.6,6.4-2.8c6.1-0.4,12.3,2.8,16.7,6.6c4.8,4.1,10.1,8.9,14.4,13.6
				c2.5,2.7,3.1,3.5,6.5,4.6c2.3,0.8,6.8,2.1,7.9,4.4c-2.3,1.4-7.3,0.1-9.8-0.6c-4.1-1.1-7.2-0.5-11.4,0.3c-3.6,0.7-7,2.5-10.3,4.1
				c-3.7,1.7-7.1,1-11.2,1.4c-0.1,2-0.1,4,1.1,5.7c1.2,1.6,3.1,1.7,4.6,1.9c1.9,0.2,2.7,1.3,2.4,2.9c-0.2,1.5-0.7,2.7-2.3,2.4
				c1,0.9,2.1,1.4,3.2,1.2c1-0.2,2.7-1.6,3-2.7c0.8-3,0-4.4-1.6-6c3.1-3.7,8.1-6.4,13-6.8c5-0.4,15.3-1.1,15.2,6
				c-2.2-0.5-4-1.1-5.9,1.2c-0.9,1.1-1.1,2-1.4,3.3c-0.6,2.2-2.7-0.2-5.1,1.4c-1.6,1.1-2.2,2.9-3.1,3.1c-3.3,0.8-4.9,2.9-5.3,5.5
				c-0.3,2.1-1.2,1.8-5.1,3.5c-4.8,2-5.9,3.3-6.9,7.3c-0.8,3.3,1.2,4.5,1.6,7c-4.8,2.6-7,4.4-8,10.5c-0.3,2,0.1,3.7,0.5,6.2
				c0.2,1.1,1,2.1,1,3.1c0.1,1.7-1.4,3.5-2.1,5.2c-0.4,1.1-0.7,2.9-0.8,4.4c-2.6,0.1-5,0.1-7-2.4c-2.1-2.6-3.9-6.9-3.5-10.3
				c0.3-2.3,2.1-8.7,3.9-9.5c1.6-0.7,3.4,0,4.8-1.5c1.2-1.3,3.3-5.5,2.2-6.8c-1-1.1,0.3-7.2-5.7-9.4c1.4,2.8,1.3,4.8,0.5,7.3
				c-1.1-0.4-2.8-0.2-3.2-1.3c-0.4-1.1,0.8-3.3,0.8-4.6c0.2-3.8-0.5-5.2-3.4-6c0.4-2.3,0.1-5-1.9-6.7c-1.8-1.4-3.1-0.8-5.9-0.7
				c3.3,2,3,4.7,2.2,7.2c-0.8,2.2-2.6,1.3-3.5,3.8c-0.6,1.6-0.3,2.3,0.6,4.9c0.7,1.8,0.4,4.8-2.2,4c-0.6-5.1-7-9.2-9.7-4.3
				c1.4-0.4,2.7,0.4,3.7,1.7c0.9,1.2,1.4,2.4,0.8,4c-0.5,1.5-2.8,0.8-3.5,3.2c-1.3,4.2,2,6.5,4.4,8.8c2.2,2.1,3.4,7.5,1.6,11.1
				c-0.8,1.7-3.7,1.4-4.4,2.8c-1.6,3.4,0.8,4.6,1.2,6.2c1.1,4.3-3.1,6.2-6.1,3.3c1.1,4.2,2,4.6,4.6,5c2.2,0.4,3.7-0.6,5.2-2
				c0.9-0.9,1.9-2.6,3.1-3c1.7-0.5,2.2-0.7,3.2-4.2c0.8,3.5,2,6.6,3.6,9.4c2.1,3.6,3.5,7.4,6.5,10.4c3,3,9.3,3.9,12.8,2.1
				c1.4-0.7,3.2-1.5,4.6-2.6c0.6,0.3,1.3,0.6,2.2,0.9c2.9,1,2.3,1,4.2,3.9c1.9,2.8,4.4,5,7.2,6.7c-0.1,1.7-0.1,3.4,0,5.3
				c0.2,4.4-3.5,14.9-9.8,15.8c-1.2,2.4-0.4,6.8-3.8,7.4c-2.4,0.4-4.6-2.9-6.7-4.2c-2.5-1.5-4.7-3.2-7.7-3c-3.7,0.3-1,1.1-5.2,1.6
				c-3.5,0.4-5.8,5.7-3,11.2c1.9-2.9,3.1-5.7,5.9-6.1c0.6,0-1.3,6.6,4.7,5.8c2.3-0.3,2.9-0.8,5.3,0.2c1.6,0.6,3,1.8,4.7,1.6
				c-2,0.6-2.1,2.1-3.2,3.3c-1.4,1.4-3.3,1.1-4.6,2.3c-3.3,2.8-0.1,6-0.7,6.9c-3.6,6.2,2.6,8.8,5.9,9.2c-1.3-1.5-2.3-4.8-0.4-6.2
				c1.2-0.9,3.7,0,5.1-0.3c3.2-0.7,1.5-4.3,1.6-6.5c0.1-1.7,0.4-5.2,2.7-5.4c0.3,4.9-1.4,6.8,3.8,7c-0.3,5.3,10.7,7.2,12.3,2.5
				c-1.2-0.1-7-0.3-4.7-3.3c1.1-1.4,2,0,2.8-2.2c0.8-2.3-1-3.8-2.7-4c-2.1-0.3-3.4-0.4-2.6-3.5c0.4-1.7,1.7-1.9,0.4-3.5
				c2,1,2.7,2.7,6-0.3c1-0.9,1.9-2.8,3.5-2.6c1.9,0.3,1.7,2,1.8,3.7c3.6-3.8,2-6.3,1.3-7.3c-0.6-0.8-2.5-1.2-2.8-1.3
				c-0.4-0.1-1,0-1.7-0.2c-0.8-0.3-0.8-1.7-3.3-1.6c-0.3-5.2,4.3-7.4,8.2-9c2.7-1.1,6.2-1.4,8.2-3.7c1-1.2,2-2.5,2.8-3.8
				c0.1,0,0.3,0,0.4,0c3.7,0.3,5.1,1.7,8.7,0.8c2.2-0.5,6.4-1.9,8.7-2.3c2.6-0.5,5.3-0.5,8-0.8c0.3,2.6,0.6,5.4,0.1,7.4
				c-0.3,0.9-0.6,1.9-1,2.8c-3.9-0.1-7.8,0-11.6,1c-5.7,1.5-11,8.3-11.7,14.2c0,0.2,0,0.4,0,0.6c-1.5,1.8-1,6.3-3.6,5.8
				c-3.3-0.4-7.9-2-6.7,2.9c-5.6,1.1-5.4,7.6-2.2,10.7c0.1-3.7,1.1-6.1,4.2-6.7c-0.1,0.4-0.4,3-0.1,4.2c0.1,0.5,0.9,0.4,0.9,1
				c-0.1,1.4-0.9,2.7-1.2,4.4c-0.6,3.8,1.5,5.4,4.9,6.9c-2.3-3.4-1.4-6.9,0.6-5.8c2.6,1.4,3.2,1.8,5.8-0.6c1.2-1.1,1.6-3.4,2.5-4.4
				c1.5-1.7,3.3-0.6,4.9-0.8c0.1,0,0.2,0,0.2,0c0.1,0.1,0.3,0.2,0.4,0.2c2.8,1.5,7,5.4,9.9,6.7c3.8,1.7,8.2,4.3,8.6,4.1
				c3.1,1.5,11.6,6.1,13.9,7.6c3.6,2.3,9.4,9.7,8.7,14.1c-2.3,0.5-5.8,1.2-8.3,0.6c-3.3-0.9-4.2-4.2-5.8-6.5
				c-3.3,9.5,3.5,14.9,8.4,15.2c3.2,0.2,7.6,1.1,10.3,2.7c3.1,1.8,8.5,8.4,12,9.5c2.8,0.8,9.7,1.3,11.1-2.1
				c-9.2,0.5-14.9-5.2-14.1-13.4c0.6-6.3,4.7-12.1,11.9-11.7c-0.9-4.1-8.2-5.2-11.9-4.3c-2.5,0.6-5,5.9-6.8,5.2
				c-1.4-0.6-2.7-3.8-3.3-4.9c-1-2.1-1.9-3.8-3.3-5.7c-4.1-6.1-4.6-7.1-10.1-11.2c-4.5-3.4-14.5-5.3-19.2-8.7
				c-0.9-0.7-1.9-1.3-2.8-1.9c2.7-0.8,5.7,0.7,6.7,0.7c0.7,0.1,1.8-1.3,1.9-1.8c2.1-0.1,3.3,1.9,3.3,4c4-3.8,2.2-7.5-1.9-9.5
				c-0.4-3.7,0-3.5-4.9-4.9c-0.7-2.8,4.3-5.5,7.6-6.9c0.8,0.1,1.6,0.1,2.4,0.1c6.8,0,13.6,0.4,20.4,0.8c7.5,0.3,14.6-1,22-1
				c5.2,0,11,0.3,16.3-0.5c-0.1,1.5-1,3-3.4,3.1c-3.2,0.2-6.5,0.1-9.5-0.5c-2.5-0.5-3.8-1-4.7,2.1c-4-0.7-8.3,6-6,10.4
				c1.1-2.4,3.1-3.6,5.7-4c-0.6,3.6,3.8,3.2,6,3.8c-2.1,1.6-4.9,2.6-3.6,4.4c0.9,1.3-3.8,3.5,1.3,8.2c0.1-3.3,0.5-4.7,3-5.2
				c1.7-0.4,3.9,1.9,6,1.7c3.8-0.3,3.5-1.5,3.5-4.8c0-2.8,1.1-6.1,2.8-8.4c-0.1,3.3-1.7,11,4.1,10.6c4.8,5.1,8.3,1.8,11.1-1.1
				c-2.6,0.4-5.3,0-5.7-3.2c8-4.2-2.1-7-0.2-11.5c1.4,0.6,3.8,0.6,5.3,0.3c1.9-0.4,1.6-1.7,2.8-2.2c2.8-1.3,4,1.3,3.9,4.3
				c2.9-1.6,1.6-7.8-1.7-9.5c-2.9-1.5-1-2.1-7.7-2.9c10.5-5.4,20.3-15.2,20.7-27C350.7,289.7,340.9,279.7,332.1,274.7z M311.1,290.5
				c5.2-0.4,15.8-0.3,19.6,6.3c4,6.8-1.3,9.5-6.6,13.6c-0.2,0.2-1.2,0.8-1.4,1c-0.3,0.1-0.5,0.1-0.7,0.2c-0.4,0.2-0.5,0.3-0.9,0.7
				c-1.3,0.6-3.3,1.4-4.7,2c-1.2-1.8-2.3-4.1-2.6-5c-1.9-5.4-4.5-11.5-8.2-15.9c-0.8-0.9-1.6-1.7-2.4-2.6
				C306,290.5,308.8,290.7,311.1,290.5z M232.2,337.1c0.7-3.6,3.9-4.4,7.1-5c-0.5,0.7-0.9,1.4-1.4,2.1c-1.8,2.9-2.7,5.1-5.9,5.3
				C232,338.7,232.1,337.9,232.2,337.1z M294.8,320.7c-9.2,1.4-12.5,1.2-17.1,1.6c-3.3,0.3-5.5,0.3-7.6,0.3c-0.4-4.5-0.8-8.6,1-13.4
				c0.6-1.5,1.6-3.1,2.4-4.7c1.6-0.5,3-1,3.9-1.3c1.1,0.9,2.2,1.7,3.2,2.6c1.7,1.5,3,3.4,4.7,5c1.8,1.8,4,3.7,6.5,4.5
				c2.8,0.8,5.4,0.7,8.1,1.7c1.3,0.5,2.6,1,4,1.7C300.6,319.5,297.2,320.3,294.8,320.7z"/>
		</defs>
		<clipPath id="SVGID_2_">
			<use xlink:href="#SVGID_1_"  style="overflow:visible;"/>
		</clipPath>
		<g class="st9">
			<path class="st8" d="M204.3,240.3c2.2-3.9,4-7.4,6.9-10.8c2.5-2.9,6.1-5.7,8.8-8.4c2.8-2.9,4.5-7.6,1.4-10.5
				c2.9-0.9,5.5-3.7,5.1-7.5c-0.1-1.2-1,0.5-1.1,1.6c-0.6,6.3-11.5,5.4-15.7,5.6c-1.2,0.1-1.5,1.4-0.4,1.3c2.4-0.1,6.2,0.1,9.6-0.5
				c4.1,1.9,2.5,5.2,0.3,8.1c-1.3-0.5-2.5-1.5-3.5-2.4c-1-0.8-2.1-1.8-2.5-3.1c-0.4-1.1-1.7-0.8-1.4,0.3c0.5,1.7,2.2,3.2,3.5,4.2
				c1.1,0.9,1.9,1.6,3.2,2.2c-1.3,1.4-2.8,2.6-3.7,3.4c-1.2,1-2.4,2-3.4,3.1c-1.9-2-3.7-5-5-7.4c-0.5-1.1-1.8-0.4-1.2,0.6
				c1.3,2.6,3.1,5.7,5.2,7.8c-0.7,0.8-1.6,2.1-2.2,3.1c-1.3,2-2.6,4-3.9,6.2c-2-0.2-4.4-1.9-6-3c-1.8-1.3-3.9-3.1-5.6-4.5
				c-0.9-0.7-1.6,0.5-0.7,1.2c3.1,2.5,7.3,6.7,11.4,7.6c-2,3.5-4.3,8.1-5.7,11.8c-4.4,0.1-13.1-1.4-16-4.8c-0.8-0.9-2-0.1-1.2,0.8
				c1.6,1.9,5.2,3.1,7.6,3.9c2.9,1,6.2,1.4,9.2,1.5c-0.2,0.6-1,3.1-1.2,3.7c-1,3.2-1.4,8.5-1.5,8.5c-7.7-1.4-13.7-0.1-19.1,3.2
				c-1,0.6-0.6,2.1,0.4,1.5c5.2-3.3,9.5-4.2,15.7-3.7c1.3,0.1,3.2,0.8,3,0.7c0.1,1.5,0.3,3,0.7,4.4c0.8,2.8,2.1,5.6,3.4,8.4
				c-5.2-0.3-11.8,0.5-15.1,4.6c-0.4,0.5-1.2,1.7-1.5,2.2c-3.3,0.2-5.6-1.5-7.4-4.4c-1.2-2-2.1-4.7-2.6-7c-0.2-1.2-1.5-0.4-1.2,0.8
				c0.6,3,2,6,3.8,8.5c1.8,2.4,4.1,3.4,7,3.4c-1.4,4-0.4,8.6,1.5,12.4c0.5,1.1,1.6,0.2,1.1-0.9c-2.5-4.9-2.9-13,2.8-16.1
				c3.8-2.1,7.8-2.5,12-2.2c0.2,0.5,1,1.5,1.2,2c1,2.1,2,3.8,3.5,5.5c-8.5,0.3-14.4,7-15.2,15.6c-0.1,1.2,1.1,1,1.2-0.1
				c0.8-7.8,7.1-14.2,14.8-14.3c0.4,0,0.6,0.8,1,0.8c-5.1,5.9-8.9,12.6-10.3,20.3c-0.2,1.2,1.3,1.4,1.5,0.3
				c1.5-7.8,5.2-14.4,10.5-20.3c0.4-0.5-0.3-1.1-0.8-1.5c-4.1-3.3-5.4-7.3-7.3-11.8c-2-4.5-3.6-8.6-3.1-13.5
				C196.7,254.5,200.3,247.5,204.3,240.3z"/>
			<path class="st8" d="M211.1,175.2c2.4,1.1,5.2,6.2,7,8.1c0.3,0.3,2.6-1.7,3-2c7.7-5.6,7.9-5.8,13.9-7.6c1.1-0.3,4.6-2.7,2.8-2.4
				c-6.2,1-15.1,5.7-19.3,10.5c-1.8-1.7-2-4.6-4.3-5.7C213.2,175.6,210.1,174.7,211.1,175.2z"/>
			<path class="st8" d="M228.9,195.3c-2.4-0.5-4.1-3.2-7.1-4.2c-1.1-0.4-0.9,0.7,0.2,1.2c2.4,1.1,3.6,3.7,6.3,4.2
				C229.4,196.7,230,195.5,228.9,195.3z"/>
			<path class="st8" d="M220.5,315.3c-0.6,1,0.4,1.5,1,0.5c2.9-5.2,5.4-10.1,7-15.9c1.3-4.8,0.2-8.9-2.4-13.8
				c-0.6-1-0.6,0.8-0.1,2.3c2.2,5.7,2.8,8,0.9,13.2C225.1,306.3,222.9,310.9,220.5,315.3z"/>
			<path class="st8" d="M163.9,233.2c0.6-1-0.6-1.6-1.1-0.6c-0.9,1.7-4.4,2.8-5.7,0.1c-0.5-1.1-1.6-0.7-1.2,0.4
				C157.1,236.4,162.2,236.3,163.9,233.2z"/>
			<path class="st8" d="M151.6,246.1c-0.7,2.4-3.3,2.3-5.3,0.5c-0.9-0.8-0.8,0.7,0.1,1.5c2.2,1.9,5.1,1.5,6.3-2.1
				C153.1,244.9,151.9,245,151.6,246.1z"/>
			<path class="st8" d="M155.3,249.5c0.2-2,0-5-1.1-6.7c-1-1.5,0.3,1.4,0.2,2.6c-0.3,3.6-0.5,8.7,0.6,13.4c0.3,1.1,0.7-0.2,0.5-1.4
				C155.3,255.6,155.1,251.2,155.3,249.5z"/>
			<path class="st8" d="M166.3,243.9c1.2-0.1,1.5-1.5,0.3-1.4c-4.5,0.5-6.9,8.6-5.8,12.3c0.3,1.1,1.2-0.7,0.8-1.8
				C161,250.8,163.3,244.2,166.3,243.9z"/>
			<path class="st8" d="M173.7,250.5c1.1-0.3,1.3-1,0.2-0.9c-2.2,0.2-5.1-1.1-5-3.3c0.1-1.2-0.8-2.2-1.1-1
				C167.3,247.7,170.2,251.4,173.7,250.5z"/>
			<path class="st8" d="M146.3,278.8c-1.2,0.3-0.8,1.3,0.3,1c1.4-0.3,3.2,0.1,4.3,1.1c0.9,0.8,2,0.2,1.2-0.6
				C150.5,278.8,148.4,278.3,146.3,278.8z"/>
			<path class="st8" d="M169.2,331.3c-0.4-1.1-1.5-0.6-1.2,0.5c0.4,1.2,0.3,2.3-0.2,3.3c-0.7,1.4-1.2,1.4-2.5,2.3
				c-1,0.7-0.4,1.7,0.6,1c1.6-1.1,2.4-1.2,3.2-3.1C169.6,334.1,169.6,332.7,169.2,331.3z"/>
			<path class="st8" d="M186.7,339.9c0.4-1.1-0.9-1.2-1.3-0.1c-0.4,1.2-2.6,2-3.6,2.5c-1.2,0.5-3.3,1.5-4.6,1.2
				c-1.2-0.2-1.8,1.1-0.7,1.3c1.9,0.4,4.1-0.7,5.8-1.4C183.9,342.6,186.1,341.7,186.7,339.9z"/>
			<path class="st8" d="M189.3,344.2c-1.3,0.7-1.9,2.1-2.7,3.6c-1.1,2-1.6,4.3-0.7,6.4c0.5,1.1,2,0.2,1.6-0.9
				c-0.6-1.5-0.6-3.4,0.2-4.8c0.4-0.8,1.5-3,2.4-3.4C191.1,344.6,190.3,343.6,189.3,344.2z"/>
			<path class="st8" d="M168,357.2c-0.9,0.7,0.3,1.3,1.2,0.6c2-1.6,8-3.6,9.7-0.3c0.5,1.1,1.6,0.5,1-0.6
				C177.6,352.4,170.9,354.9,168,357.2z"/>
			<path class="st8" d="M192.4,353.2c-0.9,0.8,0.1,1.6,1,0.7c1.7-1.7,5.3-1.1,6.9,0.5c0.8,0.9,1.6-0.1,0.8-1
				C198.7,351.1,194.8,350.9,192.4,353.2z"/>
			<path class="st8" d="M205.1,331c-2.5,0.9-3.3,4.1-1.5,6.1c0.8,0.9,1.2,0.3,0.4-0.6c-0.8-0.9-0.5-3.4,0.6-3.9
				C205.6,332.2,206.2,330.6,205.1,331z"/>
			<path class="st8" d="M248.4,352.9c-5.3-3.6-15.7-5.1-15.2-13.4c0.1-1.2-0.9-1.2-1,0c-0.6,9.3,9.9,10.3,15.8,14.3
				C249,354.4,249.4,353.5,248.4,352.9z"/>
			<path class="st8" d="M222.4,338.4c-0.3-1.1-1.3-1-1,0.1c0.4,1.6,1.3,4.4,1.9,5.8c-1-0.7-3.5-2-4.7-2.3c-1.1-0.3-1.1,1,0.1,1.3
				c1.6,0.4,4.4,1.6,5.2,3c1.3,2,3.2,5.5,6.5,8c0.9,0.7,1.1-0.1,0.2-0.9C226.2,349.4,223.9,344.3,222.4,338.4z"/>
			<path class="st8" d="M226.1,349.6c-3.1,0.8-11.3-1.7-13,2.9c-0.4,1.1,0.7,1.1,1.1-0.1c0.7-1.9,5.6-2,7.1-1.7
				c1.4,0.2,3.7,0.2,5.1-0.1C227.5,350.3,227.2,349.3,226.1,349.6z"/>
			<path class="st8" d="M213.9,350.3c-0.6-0.7-0.8-2.1-0.7-3c0.1-0.5,0.4-1.3-0.1-1.3c-0.5,0-0.7,1-0.7,1.5
				c-0.2,1.4,0.2,2.4,1.1,3.4C214.3,351.7,214.1,350.6,213.9,350.3z"/>
			<path class="st8" d="M216.7,354.9c-1.2,0-0.6,1.2,0.6,1.2c1.7,0,3.7,2.1,2.9,3.7c-0.5,1.1,0.4,2.2,0.9,1.1
				C222.4,358,219.9,354.9,216.7,354.9z"/>
			<path class="st8" d="M251.9,343.5c-1.4,0.7-3.2,2.1-3.5,3.7c-0.2,1.4,0.9,3.3,2.2,3.8c1.1,0.4,1.4-0.6,0.4-1
				c-0.7-0.3-1.7-2.7-1.4-3.1c0.5-0.7,2-2.1,2.8-2.4C253.5,343.9,253,342.9,251.9,343.5z"/>
			<path class="st8" d="M255.1,332.6c-5-0.1-12.6-1.2-16.3-0.2c-1.1,0.3-1.6,1.1,1.3,1c5-0.2,9.3,0.4,14.3,0.5
				C255.6,333.9,256.3,332.7,255.1,332.6z"/>
			<path class="st8" d="M269.3,321.6c-3.4,0-7.8,0.2-11.1,0.2c-3.5,0-9,0.4-12.3-1c-1.1-0.5-0.7,1.1,0.5,1.4
				c7.4,1.6,17,0.1,23.6,0.5C271.2,322.7,270.5,321.6,269.3,321.6z"/>
			<path class="st8" d="M275.7,304.7c-7.4-0.3-21.3,0.1-24.8-9.5c-0.4-1.1-1.7-0.8-1.3,0.3c2.1,5.7,6.4,7.8,10.9,8.9
				c-1.1,0.9-2.5,2.2-3.6,3.1c-1.7,1.4-6.6,4.1-9.1,4.2c-1.2,0.1-0.8,1.5,1.4,1c2.2-0.5,4.8-1.5,6.5-2.7c2.2-1.6,4.3-3.4,6.4-5.2
				c3.5,0.5,8.4,1,11.8,1.2C275,305.9,276.9,304.7,275.7,304.7z"/>
			<path class="st8" d="M299.3,318.8c5.1,0.8,10.7,2.8,13.5,7.2c0.3,0.5,1.4,1.7,1.7,2.2c1.1,2.3,1,2.4-0.4,4.2
				c-0.8,0.1-1.9,0.4-2.7,0.4c-2.9,0.1-3.3,1.2-0.6,1.1c1.4,0,2.7,0.2,4-0.6c2.2-1.3,2.4-4,1.3-5.8c-3.8-6.1-9.3-8.1-16.7-10.6
				C298.2,316.6,298.2,318.6,299.3,318.8z"/>
			<path class="st8" d="M300.6,335c-0.8-0.9-1.3,0.4-0.5,1.3c1.4,1.4,0.8,4.8-0.5,6c-0.9,0.8-0.4,2.1,0.5,1.3
				C302.1,341.7,302.7,337.1,300.6,335z"/>
			<path class="st8" d="M316,335.1c-2,5.5-7.5,7.9-12.6,9.9c-1.1,0.4-1.4,2.2-0.3,1.8c5.7-2.3,11.6-5,13.9-11.2
				C317.4,334.5,316.4,334,316,335.1z"/>
			<path class="st8" d="M301.9,348.5c-1.2-0.2-1.7,1.6-0.5,1.8c1.8,0.3,5.6,0.6,5.9,2.9c0.2,1.2,1.9,0.7,1.8-0.5
				C308.6,349.6,304.4,348.9,301.9,348.5z"/>
			<path class="st8" d="M327.2,346.7c-4.6-1-7.9,3.8-7.5,6.8c0.2,1.2,1.3,1.1,1.2,0c-0.3-2,2.5-6.6,6-5.7
				C328.1,348.1,328.4,347,327.2,346.7z"/>
			<path class="st8" d="M328,338.6c-1.5-0.7-2.1-3.7-1.3-5.2c0.5-1-0.6-1.7-1.1-0.6c-1.2,2.3,0,6.4,2.5,7.5
				C329.2,340.7,329.1,339.1,328,338.6z"/>
			<path class="st8" d="M335.6,335.1c-0.9,0-1.7-0.9-2.2-1.6c-0.8-1-1.2-2.8-0.2-3.8c0.8-0.9,0.2-2.1-0.6-1.2
				c-1.4,1.4-1.6,3.5-0.5,5.1c0.9,1.3,2.4,2.9,4.1,2.9C337.4,336.6,336.8,335.2,335.6,335.1z"/>
			<path class="st8" d="M331.7,326.8c-2,0.1-3.3,0.5-5.2-0.2c-1-0.4-1.7-1.7-1.5-2.3c0.2-0.6,0.2-1.5,1.4-2.8
				c1.3-1.4,3.3-3.1,2.7-5.1c0-0.1-0.1-0.1-0.1-0.2c0-0.1-0.6-0.8-0.5-0.9c1.1-1.8,2.5-2.3,4.2-1.4c0.5,0.3,0.9,0.3,0.7-0.2
				c-0.7-2-1.4-3.3-3.5-3.7c-2.2-0.4-2.3,0.5-4.5,1.3c-0.8,0.3-2.7-0.3-2.2,0.1c0,0.1,0.4,0.4,0.4,0.9c0,2.3,2.2,4.1,4.4,4.2
				c0,0,0.2,0.6,0.2,0.6c0.5,1.2-1.9,3-2.7,3.8c-1.2,1.2-1.9,3.2-1.8,3.8c0.1,0.7,1.1,2.8,2.5,3.2c2.3,0.7,2.7-0.1,5-0.2
				C332.4,327.6,332.9,326.7,331.7,326.8z M325,313.6c0-0.1-0.2-1.2-0.2-1.3c1.1,0.2,2.3-1.5,4.2-1.6c1.4-0.1,3.1,1,3.7,2.5
				c-1.2-0.3-1.8-0.6-3.1,0c-0.8,0.4-1.5,1-2,1.8C326.4,314.7,325.4,314.6,325,313.6z"/>
			<path class="st8" d="M320.3,314.4c-0.1-1.5,0.2-2.8,0.5-4.4c0.2-1.2-0.2-1.9-0.5-0.8c-0.2,1.1-1.1,2.1-1,3.2
				c0,0.7-0.2,3.5-0.2,3.6c0-0.1-0.7-1.2-0.7-1.3c-0.4-0.7-0.8-1.4-1.2-2.1c-0.6-1-1.7-0.3-1.1,0.7c0.5,0.9,1.4,2.2,1.9,3.1
				c0.3,0.6,1.2,1.6,1.5,1.4C320.5,317.4,320.4,315.4,320.3,314.4z"/>
			<path class="st8" d="M309.2,295.6c0.4,1.7,2,1.5,1.6-0.2c-0.5-2.4-2.7-3.3-4.5-4.6c-2.8-2.2-6.7-4.7-9.8-6.5
				c-1.5-0.9-0.9,1.3,0.7,2.2c2.7,1.6,5.1,3.3,7.5,5.3C305.9,292.8,308.8,293.9,309.2,295.6z"/>
			<path class="st8" d="M342,161.4c-19.6,5.2-40,12.6-56.2,25.1c-8.4,6.5-17,13-24,20.9c-7.8,8.9-14.3,18.9-19.9,29.4
				c-0.5,0.9-0.8,2.6,0,1.9c11.3-10.8,24.8-19.6,39.7-24.4c10.8-3.4,25.1-6.4,36.6-6.3c-13.4,3.9-28.4,8.2-41.1,14.1
				c-6,2.8-12.1,5.8-17.6,9.4c-4,2.6-9.5,6.3-11.1,11c-0.2,0.6,0.9,0.5,1.6,0.3c11.3-3.8,22.9-4.2,34.7-3.1c7.5,0.6,17.9,3.4,25,5.3
				c-10.5-0.5-25.6-0.8-35.9,1c-4.6,0.8-9.1,1.9-13.5,3.4c-1.1,0.4-3.3,1.1-4.5,2.1c-0.4,0.4,0.6,1,1,1.1c2.2,0.8,4.9,0.2,7.3,0.8
				c3.7,0.9,7.8,2.3,11.3,3.9c5,2.3,12.1,7.5,16,11.5c-11.2-6.8-26.4-11.6-39.9-9.9c-0.7,0.1-1.3,0.9-0.6,1.6
				c8.1,8.2,12.2,16.1,15,26.4c-2.1-3.7-6.2-10.9-9.4-13.6c-6.4-5.5-13.8-4.5-21.8-4.3c-1.2,0,0.9,1,2,1c6.8-0.2,15.9,0.7,19.5,4.7
				c3.1,3.4,7.9,10.8,10,15.6c-3.6-2.2-9.4-3.5-13.7-3.5c-4.7-0.1-10.5,0-13.9,4.6c-0.7,0.9-0.1,2.2,0.4,1.2
				c2.1-4.6,10.7-4.7,15-4.5c4.6,0.2,9.6,1.6,13,4.7c0.9,1,1.4,1.7,1.6-1.2c0.9-15.3,18.7-18.9,31.2-17.1c1.2,0.2-0.1-0.5-1.2-1.2
				c-0.9-0.6-2-1.3-2.2-1.4c-0.4-0.2-0.7-0.5-1.1-0.7c-4.8-6-12.2-11.8-19.2-14.9c-3.1-1.4-6.4-2.6-9.7-3.6c-2-0.6-5.7-0.7-7.9-1
				c1.1-0.4,3.9-1.2,5-1.5c4.4-1.3,8.5-2.5,13.1-3.2c12.8-2.1,26.4-1.1,39.2,0.1c0.5,0.1,1.5,0,2,0.1c1.1,0.2,1.8-0.7,0.6-0.9
				c-0.3-0.1-2.5-0.7-2.7-0.7c-11-2.3-21.1-6.3-32.3-7.3c-11.4-1-22.4,0.3-33.2,3.6c2.5-4.2,7.9-7.9,11.7-10.1
				c5.5-3.2,11.9-6.8,17.7-9.4c13.3-5.9,27.7-9.3,41.7-13.3c0.2-0.1,3.4-1.8,2.2-1.9c-13.6-1.3-29.1,1.9-42,6.1
				c-13,4.2-27,12.7-37.1,21.5c5-8.7,11.7-18.8,18.4-26.3c6.9-7.7,15.9-14.4,24.1-20.7c16-12.3,40.2-21,59.6-26.1
				C347.7,161.2,346.7,160.2,342,161.4z M267.6,290c-2.1-10.3-8-22.8-15.6-30.1c14.2-1.2,29.3,3.4,43.4,12.8
				C283.8,272.5,270.1,275.4,267.6,290z"/>
			<path class="st8" d="M233.4,246.8c-1-17.2,11.8-30.7,22.7-41.2c9.2-8.9,18.5-18.2,28.9-25.7c1.3-0.9,0-3-1.2-2.1
				c-11.2,8.1-21.4,18.3-31.3,28c-11.1,10.9-22.3,23.2-20,39.9c0.2,1.6,0.6,3.5,0.4,2L233.4,246.8z"/>
		</g>
		<path class="st10" d="M187.8,172.9c0.9,1.3,2.4,3.1,2.7,2.1c0.1-0.4-0.8-1.6-1.8-2.5s-1.1-1.2-1.3-0.9
			C187.2,172.1,187.8,172.9,187.8,172.9z"/>
	</g>
	<path class="st8" d="M199.3,182.9c-2.6-2.7-6.3-5.6-5.9-7.7c0.4-2,3.6-2.4,4.8-0.9c1.7,2,2,5,2,6.1S200,183.6,199.3,182.9z"/>
	<path d="M196.2,178.5c-0.7-0.9-1.7-2-1.5-2.6c0.2-0.6,1.2-0.6,1.5-0.1c0.4,0.7,0.4,1.7,0.4,2S196.4,178.7,196.2,178.5z"/>
</g>
</svg>
