<?xml version="1.0" standalone="no"?>
<!DOCTYPE svg PUBLIC "-//W3C//DTD SVG 20010904//EN"
 "http://www.w3.org/TR/2001/REC-SVG-20010904/DTD/svg10.dtd">
<svg version="1.0" xmlns="http://www.w3.org/2000/svg"
 width="1166.000000pt" height="1166.000000pt" viewBox="0 0 1166.000000 1166.000000"
 preserveAspectRatio="xMidYMid meet">
<metadata>
Created by potrace 1.11, written by Peter Selinger 2001-2013
</metadata>
<g transform="translate(0.000000,1166.000000) scale(0.100000,-0.100000)"
fill="#000000" stroke="none">
<path d="M5793 10448 c-91 -92 -96 -133 -35 -255 18 -34 32 -73 32 -85 l-1
-23 -17 22 c-9 12 -35 51 -56 86 -45 74 -77 97 -134 97 -32 0 -48 -7 -76 -34
-31 -29 -36 -40 -36 -79 0 -57 14 -94 48 -129 32 -34 42 -35 42 -4 0 25 23 56
41 56 21 0 88 -41 108 -66 23 -30 27 -79 9 -119 -10 -22 -17 -25 -66 -25 -45
0 -65 6 -104 31 -27 17 -59 45 -72 62 l-24 31 -11 -41 c-24 -90 -83 -137 -143
-114 -36 13 -58 50 -60 96 -2 45 23 70 53 54 11 -5 19 -16 19 -24 0 -16 18
-19 36 -7 42 29 57 108 29 161 -41 81 -188 78 -209 -4 -8 -31 -19 -32 -35 -1
-21 39 -86 68 -162 74 -38 2 -69 2 -69 -1 0 -3 43 -52 95 -107 116 -125 154
-195 158 -292 2 -37 6 -70 10 -74 4 -4 7 -18 7 -31 0 -13 6 -26 14 -29 8 -3
27 -23 41 -45 23 -33 26 -41 14 -55 -9 -11 -4 -10 22 4 98 57 254 77 584 77
212 -1 290 -4 363 -18 108 -20 196 -49 226 -74 l21 -18 -19 23 c-19 22 -19 23
3 52 12 17 19 35 16 40 -3 5 -1 11 5 15 5 3 10 17 10 31 0 14 7 27 16 31 10 4
14 13 10 27 -3 12 -2 38 3 57 5 19 12 50 15 69 l6 35 -29 -35 c-43 -51 -48
-30 -10 37 18 32 43 85 54 117 11 33 26 61 33 64 22 7 13 -51 -18 -115 -16
-35 -28 -63 -26 -63 1 0 18 24 37 53 18 28 69 88 111 133 43 45 78 85 78 89 0
13 -136 -3 -169 -20 -17 -8 -41 -29 -53 -45 -25 -34 -38 -38 -38 -12 -1 38
-48 72 -100 72 -58 0 -116 -44 -126 -96 -8 -43 11 -99 43 -124 l26 -20 18 30
c22 35 30 37 52 12 46 -51 -9 -152 -83 -152 -36 0 -66 41 -79 108 l-12 62 -64
-65 -64 -65 -65 0 c-70 0 -86 12 -86 62 0 37 42 100 72 110 37 13 83 -10 82
-40 -1 -27 -2 -27 46 -2 69 35 95 107 67 185 -17 48 -51 75 -106 82 -40 6 -44
4 -93 -47 -27 -28 -61 -76 -75 -106 -13 -30 -29 -51 -34 -48 -16 9 0 63 38
134 34 63 35 66 23 118 -9 42 -23 65 -63 108 -29 30 -54 54 -57 54 -3 0 -29
-24 -57 -52z m74 -295 c-3 -83 -10 -160 -16 -170 -12 -21 -16 341 -4 398 7 33
7 32 16 -21 5 -30 6 -123 4 -207z m258 55 c28 -13 40 -45 31 -83 -9 -35 -26
-22 -26 20 0 80 -102 49 -150 -46 -26 -49 -45 -62 -36 -23 16 66 91 144 138
144 9 0 29 -5 43 -12z m-480 -27 c54 -24 130 -111 97 -111 -4 0 -24 16 -43 36
-39 41 -85 64 -128 64 -24 0 -32 -5 -37 -25 -9 -34 -24 -31 -24 5 0 51 61 65
135 31z m-311 -71 c19 -18 16 -50 -4 -50 -6 0 -9 4 -5 9 7 12 -22 41 -42 41
-21 0 -71 -37 -78 -59 -3 -10 1 -36 9 -59 16 -45 13 -51 -16 -25 -11 10 -18
30 -18 55 0 93 94 147 154 88z m1093 -2 c43 -47 66 -119 44 -133 -6 -3 -13 10
-16 29 -14 73 -74 126 -91 81 -8 -19 -24 -20 -24 -1 0 20 28 46 49 46 10 0 27
-10 38 -22z m-1277 -87 c0 -21 11 -60 25 -87 14 -27 25 -53 25 -58 0 -17 -43
29 -56 61 -16 38 -19 137 -4 128 6 -3 10 -23 10 -44z m1005 -167 c201 -24 341
-72 308 -105 -9 -9 -22 -7 -56 9 -126 59 -478 94 -754 74 -192 -14 -347 -43
-415 -77 -38 -19 -49 -21 -58 -10 -8 10 -4 18 16 34 103 81 598 119 959 75z
m85 -68 c98 -21 159 -42 190 -66 38 -30 9 -43 -44 -20 -119 53 -443 85 -699
70 -205 -12 -311 -31 -415 -72 -42 -16 -56 -18 -65 -9 -31 32 96 81 269 106
138 20 657 13 764 -9z"/>
<path d="M5605 9613 c-188 -18 -323 -52 -375 -97 l-30 -25 26 -20 c66 -52 216
-85 451 -101 326 -22 711 30 772 104 31 37 -60 87 -209 115 -140 27 -474 39
-635 24z m565 -68 c255 -31 322 -71 185 -110 -249 -73 -1017 -52 -1084 29 -24
29 69 60 239 81 150 18 508 18 660 0z"/>
<path d="M5783 9028 c-122 -185 -243 -306 -369 -368 -65 -32 -172 -59 -234
-60 l-35 -1 40 -35 c52 -45 112 -81 150 -89 23 -4 20 -1 -13 13 -23 10 -67 36
-97 57 l-55 40 68 11 c37 6 91 18 119 28 132 44 291 187 419 376 37 55 71 100
75 100 4 0 25 -31 48 -70 86 -144 206 -275 321 -349 72 -47 134 -69 236 -85
l74 -11 -55 -40 c-30 -21 -74 -47 -97 -57 -33 -14 -36 -17 -13 -13 38 8 99 43
150 88 l39 34 -72 7 c-215 21 -390 148 -552 399 -41 64 -78 116 -81 117 -3 0
-33 -42 -66 -92z"/>
<path d="M3225 8742 c-107 -58 -148 -86 -219 -153 -69 -64 -143 -162 -179
-236 -24 -49 -37 -55 -37 -17 0 37 -27 136 -57 212 l-27 66 -46 -52 c-147
-159 -205 -326 -180 -514 6 -45 14 -86 16 -90 3 -4 3 -8 1 -8 -2 0 -23 27 -46
60 -23 33 -45 60 -49 60 -15 0 -73 -112 -104 -201 -30 -86 -32 -104 -33 -219
0 -183 42 -310 151 -459 46 -63 47 -65 42 -125 -3 -34 -2 -86 1 -117 l6 -56
70 41 c39 23 108 78 156 126 99 99 149 187 174 312 15 79 20 211 9 266 l-6 31
-32 -16 c-45 -23 -156 -106 -195 -147 -39 -41 -51 -44 -51 -17 0 35 12 52 54
73 73 36 184 127 235 191 28 34 68 98 91 142 40 79 91 248 78 260 -14 15 -191
-85 -282 -160 -31 -25 -56 -43 -56 -40 0 3 13 32 30 65 25 49 38 63 81 84 213
107 368 294 441 531 23 74 41 145 35 145 -1 0 -33 -17 -72 -38z m-615 -924
c-1 -20 -36 -62 -43 -51 -4 6 3 22 14 37 23 29 29 32 29 14z"/>
<path d="M4403 8618 c-126 -190 -244 -307 -378 -374 -38 -19 -59 -32 -45 -28
113 30 294 192 415 372 62 92 85 118 85 94 0 -16 131 -205 185 -266 31 -34 76
-78 101 -97 l45 -34 -25 -8 c-33 -11 -33 -31 -1 -69 25 -30 33 -58 16 -58 -5
0 -20 12 -33 28 -25 30 -142 87 -200 97 -24 5 -54 1 -88 -10 -58 -19 -80 -10
-80 33 0 29 42 106 68 122 13 9 8 10 -27 6 -75 -8 -134 -69 -147 -152 -5 -35
-10 -44 -26 -44 -10 0 -30 -11 -43 -25 -21 -20 -25 -34 -25 -79 0 -53 -2 -56
-27 -61 -16 -4 -37 -8 -48 -10 -36 -8 -133 16 -153 39 -26 27 -46 98 -31 107
8 4 7 8 -2 11 -10 3 -10 13 -2 46 l11 41 -42 -28 c-22 -15 -69 -43 -104 -61
-80 -41 -102 -69 -102 -129 0 -63 13 -82 31 -46 16 32 65 72 75 62 4 -4 11
-33 15 -66 18 -131 72 -220 165 -273 30 -16 54 -34 54 -38 0 -17 -138 -122
-210 -159 -89 -46 -176 -74 -285 -92 -44 -7 -84 -16 -90 -21 -14 -13 92 -105
160 -138 33 -17 76 -32 95 -35 23 -4 15 1 -23 14 -65 21 -118 54 -177 108 -48
42 -50 53 -11 53 17 0 58 7 93 15 178 41 310 109 425 218 41 39 41 39 80 26
47 -17 269 -17 333 -1 25 7 95 15 155 18 91 5 128 2 215 -16 58 -12 114 -23
125 -24 28 -4 124 -36 158 -53 31 -16 33 -12 12 30 -28 58 -88 85 -137 63 -15
-7 -18 -3 -18 16 0 14 -8 32 -18 41 -23 21 -39 22 -22 2 17 -20 7 -19 -40 5
-27 14 -49 37 -70 73 -16 28 -30 47 -30 40 0 -6 9 -27 20 -46 l20 -34 -67 19
c-92 26 -221 25 -348 -2 -117 -24 -245 -37 -245 -24 0 21 94 194 106 194 7 0
25 19 41 43 17 25 46 51 73 65 39 20 56 23 126 20 143 -7 241 -71 513 -333
136 -131 151 -143 220 -168 195 -73 168 -132 -40 -87 -92 20 -111 21 -181 11
-78 -10 -153 -34 -275 -85 -48 -21 -80 -27 -143 -28 l-80 -1 0 -43 c0 -56 30
-92 90 -105 24 -6 50 -15 57 -21 19 -15 16 -55 -6 -77 -17 -17 -17 -20 -4 -25
29 -12 54 -6 78 19 30 29 33 83 9 121 -16 24 -16 26 10 53 37 39 110 77 181
96 69 18 190 18 255 2 34 -9 70 -9 145 -1 144 16 164 29 199 128 5 13 10 16
17 9 20 -20 -8 -89 -50 -125 -37 -31 -38 -35 -25 -58 37 -67 6 -126 -148 -280
-107 -107 -133 -140 -184 -230 -139 -248 -181 -361 -191 -505 -5 -83 -3 -98
25 -182 45 -134 96 -234 147 -291 25 -27 45 -54 45 -58 -1 -5 -23 -38 -50 -74
-28 -36 -65 -94 -84 -130 -36 -67 -76 -202 -76 -253 0 -22 -4 -27 -17 -23 -10
3 -34 6 -53 8 l-35 3 4 -141 3 -141 -28 -19 c-16 -10 -38 -24 -49 -30 -11 -6
-24 -26 -28 -45 -17 -66 -30 -91 -54 -100 -29 -11 -47 -2 -118 54 -57 45 -139
87 -172 87 -12 0 -37 -6 -55 -14 -18 -8 -45 -17 -60 -21 -62 -12 -97 -91 -77
-170 6 -25 14 -45 18 -45 3 0 17 18 31 41 14 23 42 52 63 65 37 24 40 30 41
89 1 37 27 41 36 5 9 -33 -5 -78 -30 -105 -16 -17 -19 -29 -14 -49 9 -36 33
-47 102 -45 32 1 74 -4 93 -11 31 -11 42 -10 82 5 25 9 56 28 68 41 25 26 49
32 49 11 0 -19 -37 -51 -90 -77 -25 -12 -56 -36 -70 -52 -14 -17 -45 -40 -70
-51 -48 -24 -73 -60 -63 -95 5 -19 10 -21 43 -16 53 9 120 -31 120 -70 0 -12
-33 -5 -44 9 -6 9 -27 18 -47 21 -47 8 -79 -20 -79 -70 0 -43 29 -80 81 -100
47 -19 55 -16 40 12 -16 29 -14 68 5 86 9 10 33 16 59 16 40 0 44 -2 48 -27
l4 -28 2 29 c0 16 8 37 17 47 14 16 19 13 67 -38 57 -60 119 -97 194 -113 64
-15 227 -15 298 0 41 9 60 9 68 1 16 -16 27 -13 27 7 0 19 65 62 93 62 24 0
67 39 85 79 10 20 31 43 49 52 l31 16 -39 36 -39 37 -94 0 c-117 0 -146 -9
-146 -48 0 -15 5 -33 10 -38 19 -19 0 -44 -35 -44 -32 0 -110 13 -150 24 -11
4 -6 0 10 -8 17 -8 59 -18 95 -21 l65 -7 0 -64 c0 -80 3 -79 -190 -79 -170 1
-231 20 -305 94 -69 69 -82 93 -82 153 0 62 40 161 72 178 32 17 35 -11 6 -55
-18 -26 -26 -51 -26 -79 0 -47 13 -66 47 -66 16 0 27 -9 37 -34 24 -57 115
-88 186 -63 51 18 50 41 -2 53 -33 7 -44 14 -46 32 -3 19 -9 22 -52 22 -27 0
-52 -4 -55 -10 -9 -15 -35 -12 -35 4 0 40 122 65 150 31 7 -8 9 -15 4 -15 -5
0 11 -14 36 -30 25 -16 50 -30 55 -30 6 0 -9 12 -32 26 -39 23 -58 54 -34 54
15 0 23 38 12 57 -5 10 -29 25 -53 33 -39 14 -43 19 -46 54 -3 35 -2 37 20 32
13 -3 17 -3 11 0 -7 3 -13 16 -13 30 0 22 2 23 26 12 21 -10 31 -9 59 7 19 10
42 29 50 41 26 41 85 26 85 -21 1 -19 1 -19 20 4 11 13 20 33 20 46 0 16 15
32 59 59 33 20 72 51 87 69 30 35 84 143 84 167 0 8 -11 -11 -24 -43 -26 -62
-33 -74 -80 -126 -34 -37 -98 -81 -119 -81 -7 0 -20 9 -29 20 -22 24 -66 36
-87 23 -11 -8 -15 -24 -14 -52 2 -43 -6 -51 -27 -26 -12 14 -10 64 4 96 5 12
1 18 -14 22 -19 5 -21 10 -15 39 4 18 14 43 22 55 22 34 99 79 196 113 106 39
131 64 204 212 96 192 109 263 72 383 -11 36 -19 76 -17 88 3 18 9 13 30 -28
32 -63 51 -152 42 -202 -10 -56 -51 -168 -94 -253 -27 -56 -35 -81 -29 -100 6
-21 7 -22 8 -4 1 18 6 20 59 16 40 -2 85 4 149 21 l91 25 89 -22 88 -23 -3
-60 -3 -60 32 -7 c17 -3 119 -6 226 -6 l195 0 -4 38 -3 37 180 7 c99 3 187 8
195 10 12 2 15 -8 15 -47 l0 -50 -60 -7 c-140 -16 -640 -27 -720 -15 -112 16
-249 13 -316 -6 -97 -29 -191 -130 -224 -242 -12 -38 -12 -49 0 -72 8 -16 15
-34 15 -42 0 -31 75 -168 117 -212 25 -26 42 -52 39 -57 -3 -6 5 -13 19 -16
14 -4 25 -10 25 -14 0 -25 163 -262 180 -262 3 0 21 20 39 45 17 24 36 47 41
50 13 8 321 -150 384 -197 91 -68 166 -182 166 -252 0 -30 -4 -34 -31 -40 -17
-3 -58 -6 -89 -6 -64 0 -103 23 -137 81 -10 16 -21 29 -25 29 -12 0 -10 -114
3 -147 13 -34 55 -80 91 -99 15 -8 67 -21 115 -30 119 -20 173 -48 273 -139
47 -42 99 -83 117 -91 18 -8 65 -14 107 -14 59 0 79 4 97 20 l24 19 -36 1
c-59 0 -133 27 -168 62 -55 54 -76 103 -75 184 0 128 71 229 182 257 l52 13
-22 21 c-40 36 -71 46 -145 47 l-72 1 -54 -54 c-69 -67 -82 -64 -133 32 -20
40 -54 98 -76 129 -21 31 -38 59 -38 62 0 3 35 7 78 9 l77 3 -77 2 -77 2 -75
75 -75 75 42 0 c23 0 73 7 110 15 206 43 312 192 333 466 l7 87 36 6 c20 3
106 6 192 6 209 0 277 7 284 31 14 43 -75 148 -159 188 -83 40 -127 46 -206
27 -36 -9 -82 -16 -102 -16 l-38 0 0 51 c0 51 0 51 -27 45 -16 -4 -106 -9
-201 -13 l-173 -6 6 39 c14 84 18 100 37 137 11 22 18 40 16 42 -2 1 -48 7
-103 12 l-100 10 -69 -55 c-72 -58 -161 -101 -208 -102 -14 0 -28 -4 -30 -9
-4 -12 -98 9 -98 21 0 4 19 8 43 8 78 0 233 67 285 123 l23 24 -66 32 c-67 33
-119 87 -132 139 -9 38 13 49 31 14 43 -83 110 -128 231 -155 77 -18 197 -23
262 -12 l41 7 99 -97 c128 -128 152 -142 254 -161 112 -20 182 -41 253 -77 70
-34 161 -123 171 -166 8 -39 -11 -108 -35 -121 -22 -12 -154 -12 -225 -1 -60
11 -70 6 -50 -22 29 -42 6 -167 -31 -167 -18 0 -17 18 1 50 16 28 19 78 7 98
-7 9 -16 10 -43 1 -69 -23 -109 -80 -109 -154 0 -44 12 -60 23 -31 12 31 97
69 97 43 0 -32 72 -65 82 -38 2 5 46 31 98 58 91 46 120 72 166 149 8 13 15
16 22 9 16 -16 -25 -91 -74 -133 -23 -21 -71 -53 -106 -71 -35 -17 -74 -40
-88 -51 -23 -18 -23 -20 -5 -20 36 -1 105 -38 114 -62 16 -44 -17 -69 -39 -28
-13 24 -34 35 -80 44 -34 6 -36 5 -48 -34 -16 -52 -15 -66 5 -101 21 -36 33
-37 33 -4 0 25 39 75 59 75 6 0 33 -9 61 -20 38 -15 60 -18 83 -12 31 8 32 10
44 95 7 48 21 102 30 120 l18 32 6 -75 c8 -112 25 -138 48 -75 18 49 68 85
119 85 31 0 42 -4 42 -15 0 -9 -9 -15 -25 -15 -37 0 -70 -19 -88 -50 -26 -43
-21 -57 29 -86 41 -24 49 -26 84 -15 20 6 43 18 50 26 11 13 19 9 62 -31 93
-87 212 -121 386 -109 65 4 102 3 102 -4 0 -23 -59 -76 -115 -102 -67 -32 -62
-40 7 -10 24 10 55 30 70 43 26 25 63 86 56 93 -2 2 -37 -1 -78 -7 -145 -20
-288 6 -382 69 -73 49 -149 176 -126 212 9 15 6 27 -14 62 -14 24 -28 60 -29
79 l-4 35 57 5 c73 7 88 20 58 52 -32 34 -42 67 -31 99 5 15 7 30 4 33 -3 2
-27 2 -54 -1 -44 -5 -50 -3 -80 26 -40 41 -35 75 21 138 22 25 40 50 40 55 0
5 -13 14 -29 19 -32 11 -54 39 -65 82 -6 24 -4 27 19 27 14 0 40 7 56 16 19 9
41 13 60 9 32 -7 69 -48 69 -76 0 -15 -5 -17 -30 -13 -41 9 -60 -9 -53 -50 4
-27 -1 -40 -36 -80 -60 -69 -53 -116 16 -116 40 0 110 42 205 123 l64 54 131
7 c320 17 730 122 904 232 21 13 42 24 46 24 5 0 28 -33 53 -73 24 -39 84
-113 132 -162 l87 -91 -14 -39 c-8 -22 -14 -45 -15 -52 0 -6 -5 -24 -11 -39
-10 -28 -11 -27 -33 38 -32 92 -97 209 -157 285 -28 35 -53 63 -55 63 -10 0
-55 -105 -75 -172 -27 -93 -37 -291 -19 -380 23 -122 107 -285 202 -393 l35
-40 20 40 c11 22 28 65 37 95 28 90 27 87 36 65 4 -11 11 -42 14 -70 l7 -50
-77 -70 c-78 -70 -134 -145 -180 -243 -31 -66 -74 -230 -74 -283 0 -38 0 -38
33 -33 58 10 250 111 319 169 37 30 86 79 109 108 78 97 149 278 165 418 l7
60 -29 -7 c-16 -4 -56 -17 -88 -30 -33 -13 -64 -24 -69 -24 -6 0 20 30 56 68
132 133 215 272 257 428 30 111 37 300 16 420 -25 147 -21 143 -94 83 -34 -27
-62 -48 -62 -45 0 3 15 29 34 58 116 183 161 364 138 565 -12 109 -48 263 -62
263 -14 0 -169 -193 -207 -259 -41 -70 -51 -67 -52 20 -1 70 -37 195 -80 284
-58 118 -174 248 -298 333 l-32 23 -8 -38 c-15 -73 -9 -323 10 -393 43 -163
155 -329 296 -443 l71 -58 0 -89 c0 -50 -4 -90 -8 -90 -5 0 -19 23 -33 52 -38
83 -92 160 -165 238 -77 82 -162 153 -174 145 -19 -11 -35 -148 -34 -285 1
-125 4 -156 26 -225 14 -44 28 -88 33 -97 6 -15 2 -18 -26 -18 -80 1 -287 72
-401 139 -172 101 -371 283 -487 446 -63 89 -109 171 -100 179 2 2 29 0 59 -5
82 -11 252 -11 312 2 29 6 78 23 108 37 54 25 142 99 161 134 9 16 5 18 -33
16 -37 -1 -39 -2 -10 -5 l32 -4 -20 -29 c-30 -43 -111 -98 -177 -121 -75 -27
-238 -36 -357 -20 -48 7 -90 10 -93 7 -10 -10 55 -121 127 -218 142 -189 351
-368 542 -464 90 -45 230 -92 301 -100 31 -4 57 -11 57 -16 0 -14 -192 -101
-300 -136 -122 -39 -287 -77 -422 -97 -121 -17 -318 -31 -318 -22 0 3 18 32
40 63 22 31 49 82 61 113 29 77 37 210 16 282 -45 153 -197 314 -392 413 -57
29 -99 40 -225 61 -85 15 -206 29 -267 32 -107 5 -113 7 -113 27 1 48 99 216
161 275 50 47 164 100 234 109 57 7 59 9 36 21 -19 10 -25 11 -31 0 -6 -9 -29
-10 -92 -5 -475 38 -748 21 -1015 -63 l-58 -18 40 -7 c122 -20 311 -99 424
-175 34 -24 106 -84 159 -135 53 -51 115 -103 137 -117 l40 -24 -150 -6 c-124
-6 -162 -11 -222 -32 -158 -56 -239 -147 -263 -294 -5 -30 -11 -58 -14 -60 -3
-3 -22 9 -43 26 -69 55 -142 75 -278 76 -141 0 -205 -15 -240 -56 -25 -31 -45
-38 -45 -16 0 21 51 69 99 91 40 18 64 21 176 21 129 -1 156 -6 259 -50 17 -7
15 1 -13 51 -19 32 -56 92 -83 131 -115 171 -146 183 -508 193 -166 5 -267 12
-290 20 -41 15 -86 54 -106 92 -27 52 -23 54 90 50 163 -6 308 29 373 90 l22
20 30 -34 c17 -19 46 -46 66 -59 19 -13 35 -27 35 -30 0 -4 -20 -29 -45 -57
l-44 -49 79 -6 c147 -10 238 -70 341 -227 27 -41 49 -72 49 -70 0 12 -44 118
-72 173 -43 86 -90 155 -154 227 -83 93 -80 95 111 94 190 -2 288 -23 471
-102 63 -27 114 -48 114 -46 0 10 -171 129 -223 155 -86 44 -258 99 -308 99
-58 0 -119 18 -119 34 0 24 148 76 310 110 131 28 239 36 470 37 253 0 254 3
19 54 -263 56 -595 56 -815 0 -131 -33 -136 -33 -122 6 37 106 319 289 674
437 106 45 403 147 584 201 l65 19 -43 1 c-160 4 -598 -101 -802 -192 -182
-81 -403 -227 -548 -362 -83 -77 -97 -64 -43 38 123 233 313 490 483 653 106
102 349 296 491 391 231 157 614 319 969 412 42 11 89 27 105 35 l28 15 -29 1
c-52 0 -271 -50 -394 -90 -67 -22 -127 -40 -134 -40 -18 0 -107 114 -170 217
l-51 83 -76 -112 c-42 -61 -110 -147 -151 -191 -75 -81 -207 -177 -241 -177
-17 0 -17 3 -4 47 21 68 97 174 200 277 l90 90 -77 -41 c-161 -87 -298 -190
-435 -329 -72 -74 -134 -134 -137 -134 -3 0 -35 34 -71 77 -58 68 -65 81 -65
119 0 23 -5 55 -11 71 -10 27 -11 27 -25 9 -16 -23 -15 -25 -42 41 -28 66 -28
73 6 74 l27 1 -25 8 c-58 19 -59 17 -14 -95 l24 -60 -23 -17 c-30 -24 -155
-63 -247 -77 -41 -7 -100 -23 -130 -35 -30 -13 -76 -31 -102 -40 -26 -10 -95
-51 -152 -92 -58 -41 -109 -74 -113 -74 -4 0 -26 26 -48 56 -22 31 -56 69 -75
85 -19 16 -43 35 -52 44 -10 8 -22 15 -26 15 -5 0 -44 15 -88 34 -43 19 -110
40 -149 46 -38 7 -79 13 -90 16 -55 10 -246 223 -325 362 -19 34 -38 62 -41
62 -3 0 -33 -42 -66 -92z m2805 -70 c28 -46 73 -111 101 -145 48 -59 49 -62
28 -69 -53 -16 -469 -189 -537 -223 -144 -72 -331 -231 -676 -576 -171 -170
-245 -252 -287 -316 -64 -96 -123 -218 -144 -294 -20 -75 -28 -217 -14 -243
16 -29 31 -28 31 2 0 31 34 56 75 56 37 0 104 -30 128 -58 21 -23 34 -96 20
-105 -5 -3 -34 -9 -64 -13 l-54 -7 23 25 c30 33 28 38 -16 38 -54 0 -181 34
-241 65 -48 24 -51 27 -44 53 20 71 -3 144 -53 170 l-33 17 42 54 c23 29 51
79 62 110 19 53 22 56 56 59 31 3 38 8 58 49 22 46 22 47 3 62 -16 13 -21 34
-27 118 -7 105 -1 133 34 160 22 17 76 16 91 -2 20 -24 30 -18 30 20 0 44 -21
58 -118 80 -71 16 -132 53 -132 79 0 7 -29 34 -65 60 -100 74 -82 95 23 27
l61 -40 78 34 c90 39 219 109 245 132 9 8 37 18 62 20 41 5 87 35 74 48 -3 3
-42 8 -87 12 -80 6 -82 5 -113 -23 -22 -21 -29 -24 -25 -11 4 10 7 25 7 32 0
8 10 23 22 35 19 17 35 20 128 20 l106 0 41 35 c23 19 51 55 63 80 l22 45 21
-27 c11 -16 40 -49 65 -75 l45 -47 -79 -96 c-193 -236 -241 -299 -333 -435
-202 -299 -272 -442 -289 -585 -10 -82 -7 -141 9 -151 5 -3 9 19 9 49 0 131
63 289 177 442 104 140 533 558 749 730 53 43 94 83 97 97 4 16 24 32 59 49
126 63 253 188 371 367 33 50 62 92 63 92 0 0 24 -37 52 -82z m-2257 -358 c10
-6 25 -23 33 -39 19 -36 30 -122 17 -140 -20 -30 -147 103 -139 146 2 9 14 23
28 30 31 16 36 16 61 3z m-737 -166 c-1 -17 -21 -69 -45 -117 -35 -70 -47 -87
-65 -87 -59 0 -132 57 -170 131 -29 59 -32 84 -6 74 33 -15 80 -17 103 -4 25
13 143 38 169 35 10 -1 15 -12 14 -32z m1281 -1259 c24 -23 33 -45 19 -45 -13
0 -104 54 -104 62 0 19 62 7 85 -17z m-29 -40 c104 -60 217 -102 295 -112 35
-4 64 -13 63 -18 0 -6 -15 -20 -33 -32 -17 -12 -31 -25 -30 -30 4 -13 -72 -61
-123 -78 -93 -32 -355 -40 -345 -11 11 33 112 55 156 33 27 -13 31 -14 31 -1
0 55 -66 104 -140 104 -40 0 -41 1 -36 28 2 15 7 44 11 64 5 35 47 98 64 98 4
0 43 -20 87 -45z m479 -202 c-4 -21 -11 -53 -17 -70 -12 -40 -24 -36 -94 34
l-47 48 64 11 c105 18 101 19 94 -23z m1087 -607 l95 -64 149 -4 c119 -4 159
-9 197 -24 128 -53 190 -164 138 -248 -18 -29 -130 -120 -178 -145 -18 -9 -23
-21 -25 -68 -2 -44 -7 -59 -19 -61 -22 -4 -87 105 -138 231 -22 54 -55 123
-72 155 -37 64 -150 181 -221 230 -46 30 -63 62 -34 62 7 0 56 -29 108 -64z
m2283 -445 c3 -5 1 -12 -5 -16 -5 -3 -10 1 -10 9 0 18 6 21 15 7z m-4387 -87
c21 -6 23 -11 17 -48 -8 -47 -61 -170 -81 -187 -12 -9 -14 0 -14 53 0 36 -3
93 -6 127 l-7 61 34 0 c19 0 44 -3 57 -6z m1144 -369 c3 -3 71 -7 151 -9 146
-3 147 -3 219 -39 40 -20 93 -39 118 -42 l45 -5 -50 13 c-27 8 -66 21 -86 29
-76 33 -58 38 126 38 l176 0 -3 -37 -3 -38 -80 -6 -80 -5 78 -2 c85 -2 85 -2
71 -72 -5 -23 -16 -36 -38 -46 l-31 -15 33 6 c38 8 38 6 12 -71 -61 -177 -195
-267 -400 -268 -78 0 -93 3 -190 44 -58 24 -107 45 -109 46 -6 5 31 104 39
104 5 0 12 -10 15 -21 6 -19 8 -20 23 -5 26 25 20 81 -11 114 -20 21 -27 39
-29 73 -1 39 -2 40 -5 9 -3 -24 -14 -43 -36 -62 -30 -25 -31 -29 -21 -57 7
-16 9 -32 6 -35 -13 -14 -30 -4 -41 22 -16 39 -1 74 43 102 29 18 34 25 26 40
-5 9 -28 25 -50 34 -55 22 -52 43 15 95 l30 23 6 -24 7 -23 1 23 c1 13 5 22 9
20 5 -1 36 -35 70 -75 67 -78 134 -118 213 -128 l44 -5 -50 13 c-27 8 -69 23
-91 35 -50 26 -177 161 -169 180 4 11 1 12 -12 6 -10 -5 -79 -8 -154 -6 l-135
3 -35 -50 c-18 -28 -42 -54 -53 -57 -15 -5 -17 -13 -13 -45 8 -57 46 -101 126
-143 39 -21 69 -41 66 -45 -2 -5 17 -11 43 -14 26 -3 54 -8 63 -12 11 -4 25 2
38 16 32 35 47 13 29 -43 -19 -55 -34 -54 -148 11 -47 26 -108 61 -137 76 -31
16 -64 44 -80 68 -25 37 -28 48 -26 119 1 43 7 86 12 97 20 36 85 49 252 50
86 1 158 -1 161 -4z m1464 -52 c-5 -81 -5 -80 -21 -59 -27 35 -15 116 17 116
4 0 6 -26 4 -57z m-1899 -45 c-3 -8 -6 -5 -6 6 -1 11 2 17 5 13 3 -3 4 -12 1
-19z m1955 -259 c17 -40 17 -40 -5 -37 -27 4 -51 47 -35 65 16 20 22 16 40
-28z m-2212 -104 c27 -14 60 -60 60 -84 0 -14 -40 -55 -67 -70 -19 -9 -23 -9
-23 2 0 19 20 36 36 30 10 -4 14 4 14 29 0 37 -21 63 -55 70 -24 4 -34 38 -10
38 9 0 29 -7 45 -15z m375 -74 c28 -21 77 -52 109 -68 l57 -29 -36 -47 -37
-48 -30 38 c-59 74 -134 193 -122 193 4 0 30 -17 59 -39z"/>
<path d="M4900 8143 c0 -4 5 -15 10 -23 8 -13 10 -13 10 2 0 9 -4 20 -10 23
-5 3 -10 3 -10 -2z"/>
<path d="M7360 5391 c0 -6 5 -13 10 -16 6 -3 10 1 10 9 0 9 -4 16 -10 16 -5 0
-10 -4 -10 -9z"/>
<path d="M6052 4890 c0 -19 2 -27 5 -17 2 9 2 25 0 35 -3 9 -5 1 -5 -18z"/>
<path d="M6620 4770 c-34 -7 -34 -7 -5 -8 17 0 39 3 50 8 24 10 4 10 -45 0z"/>
<path d="M6438 4753 c29 -2 74 -2 100 0 26 2 2 3 -53 3 -55 0 -76 -1 -47 -3z"/>
<path d="M8360 8688 c1 -31 42 -174 71 -243 71 -171 206 -323 377 -424 78 -46
92 -58 111 -100 11 -26 21 -50 21 -54 0 -4 -36 22 -80 58 -65 53 -226 145
-253 145 -13 0 -7 -37 19 -126 60 -211 182 -373 363 -485 60 -38 70 -48 73
-76 2 -18 1 -33 -2 -33 -3 0 -30 25 -60 56 -30 31 -91 80 -135 110 -69 47 -81
52 -87 36 -13 -33 -8 -232 8 -310 34 -171 152 -337 319 -448 95 -64 93 -66 94
89 1 108 1 109 35 150 131 161 200 403 167 590 -16 90 -62 223 -101 292 -17
30 -33 55 -35 55 -2 0 -23 -26 -46 -57 l-41 -58 7 60 c22 180 -4 306 -88 437
-45 71 -128 161 -138 151 -17 -17 -71 -169 -83 -232 l-13 -66 -35 70 c-52 102
-139 208 -232 281 -90 71 -236 153 -236 132z m726 -1025 c-4 -4 -11 -1 -16 7
-16 25 -11 35 7 17 9 -9 13 -20 9 -24z"/>
<path d="M5652 8462 c-24 -34 -45 -62 -47 -62 -2 0 2 19 11 42 8 22 12 43 10
45 -2 2 -19 0 -37 -6 -34 -9 -34 -9 -5 -10 25 -1 27 -4 22 -26 -17 -66 -53
-121 -116 -172 -36 -30 -91 -77 -122 -104 -62 -54 -62 -54 -19 -109 l20 -25
23 21 c66 60 190 127 291 158 17 5 53 73 44 82 -2 3 -17 -2 -33 -11 -31 -16
-54 -19 -54 -8 0 4 9 25 20 48 22 45 43 144 38 177 -2 17 -11 9 -46 -40z"/>
<path d="M5383 8463 c9 -2 23 -2 30 0 6 3 -1 5 -18 5 -16 0 -22 -2 -12 -5z"/>
<path d="M5503 8463 c9 -2 25 -2 35 0 9 3 1 5 -18 5 -19 0 -27 -2 -17 -5z"/>
<path d="M6163 8463 c9 -2 25 -2 35 0 9 3 1 5 -18 5 -19 0 -27 -2 -17 -5z"/>
<path d="M6293 8463 c9 -2 23 -2 30 0 6 3 -1 5 -18 5 -16 0 -22 -2 -12 -5z"/>
<path d="M5448 8453 c7 -3 16 -2 19 1 4 3 -2 6 -13 5 -11 0 -14 -3 -6 -6z"/>
<path d="M6238 8453 c7 -3 16 -2 19 1 4 3 -2 6 -13 5 -11 0 -14 -3 -6 -6z"/>
<path d="M7600 8321 c-285 -96 -581 -233 -762 -355 -126 -84 -376 -284 -481
-385 -136 -130 -309 -355 -413 -536 l-29 -50 66 52 c87 69 274 187 380 239
251 125 525 201 845 234 105 11 274 6 274 -9 0 -18 -77 -45 -340 -121 -391
-112 -562 -180 -828 -331 -134 -76 -179 -108 -243 -170 -54 -53 -58 -66 -15
-49 52 19 232 52 340 60 198 16 335 0 657 -80 156 -39 293 -73 304 -77 11 -3
2 9 -22 30 -80 67 -123 131 -149 224 -33 121 11 215 185 393 76 77 105 101
140 111 48 14 48 14 -47 39 -155 40 -210 256 -109 427 11 19 21 33 22 31 2 -2
15 -34 30 -73 88 -235 293 -430 524 -499 91 -27 82 -17 -17 19 -237 86 -399
242 -494 474 -14 36 -25 69 -22 72 2 4 19 3 37 -2 17 -5 50 -8 72 -8 24 1 30
3 15 5 -59 9 -130 26 -130 31 0 12 83 114 116 142 l33 29 69 -29 c38 -16 102
-33 143 -39 40 -6 74 -12 76 -13 1 -2 -19 -19 -45 -39 -54 -41 -109 -65 -179
-78 l-48 -9 57 4 c65 4 125 32 206 98 l52 42 -87 6 c-84 6 -177 32 -217 62
-17 12 -10 20 75 87 102 79 115 90 109 90 -3 -1 -70 -23 -150 -49z"/>
<path d="M4710 8003 c0 -5 5 -15 10 -23 8 -12 10 -11 10 8 0 12 -4 22 -10 22
-5 0 -10 -3 -10 -7z"/>
<path d="M4836 7861 c-3 -5 2 -15 11 -22 15 -12 16 -12 10 3 -3 9 -1 19 6 22
7 2 5 5 -5 5 -9 1 -19 -3 -22 -8z"/>
<path d="M5278 7423 c-27 -4 -27 -5 -13 -33 17 -33 92 -100 112 -100 15 0 43
58 43 88 0 44 -49 59 -142 45z"/>
<path d="M2156 7348 c-59 -127 -79 -223 -74 -357 7 -164 54 -293 156 -425 26
-33 52 -67 58 -75 10 -12 17 -5 42 44 141 280 107 577 -94 822 l-54 66 -34
-75z"/>
<path d="M8030 7400 c25 -8 87 -13 79 -6 -2 2 -26 6 -54 9 -34 4 -42 3 -25 -3z"/>
<path d="M8139 7381 c23 -6 22 -9 -33 -57 -120 -108 -254 -141 -428 -108 -26
5 -28 4 -28 -31 0 -137 311 -440 584 -569 124 -59 109 -41 -20 24 -145 72
-269 164 -389 285 -97 99 -152 181 -162 240 l-6 37 85 -7 c102 -9 179 5 263
46 59 29 175 122 175 140 0 5 -15 9 -32 8 -29 -1 -30 -2 -9 -8z"/>
<path d="M5156 7334 c-14 -15 -26 -34 -26 -43 0 -21 81 -144 98 -149 6 -2 38
21 69 51 l57 54 -60 56 c-68 65 -97 71 -138 31z"/>
<path d="M3930 7273 c14 -2 31 -12 39 -21 13 -16 13 -16 7 1 -3 10 -6 21 -6
23 0 2 -15 3 -32 3 -28 -1 -29 -2 -8 -6z"/>
<path d="M4964 7232 c7 -51 6 -52 -27 -66 -37 -15 -77 -60 -77 -85 1 -28 173
-151 211 -151 9 0 41 38 73 86 l56 86 -28 36 c-41 54 -73 112 -67 123 4 5 -7
9 -23 9 -16 0 -51 3 -77 7 l-48 6 7 -51z m46 29 c0 -6 -4 -12 -10 -16 -5 -3
-7 -12 -3 -20 3 -8 0 -15 -7 -15 -6 0 -8 5 -5 10 3 6 1 10 -4 10 -6 0 -11 9
-11 20 0 13 7 20 20 20 11 0 20 -4 20 -9z m30 -11 c0 -5 -5 -10 -11 -10 -5 0
-7 5 -4 10 3 6 8 10 11 10 2 0 4 -4 4 -10z"/>
<path d="M9434 7234 c-99 -118 -168 -258 -194 -392 -26 -133 4 -328 75 -488
l26 -59 35 40 c101 117 179 274 204 409 24 131 -5 322 -73 470 l-32 69 -41
-49z"/>
<path d="M3788 7263 c23 -2 59 -2 80 0 20 2 1 4 -43 4 -44 0 -61 -2 -37 -4z"/>
<path d="M3938 7170 c-111 -227 -535 -525 -781 -547 -32 -3 -60 -10 -63 -14
-7 -12 73 -97 116 -124 19 -12 46 -25 60 -29 14 -4 4 5 -23 19 -51 28 -137
105 -137 123 0 7 14 12 33 12 110 0 317 93 487 218 112 83 269 245 308 320 19
34 32 66 30 70 -2 4 -15 -17 -30 -48z"/>
<path d="M4129 7134 c15 -19 21 -41 21 -78 0 -56 12 -76 45 -76 27 0 65 40 65
67 0 67 -43 113 -106 113 l-45 0 20 -26z"/>
<path d="M2703 6995 c-205 -138 -336 -352 -352 -575 l-6 -95 -29 55 c-48 93
-195 290 -216 290 -14 0 -61 -178 -71 -265 -21 -183 27 -378 135 -545 23 -36
46 -71 51 -79 5 -8 -26 16 -69 53 -43 37 -81 64 -86 59 -17 -19 -43 -177 -47
-293 -11 -254 64 -481 224 -679 38 -46 74 -91 80 -100 9 -11 -10 -6 -55 16
-38 18 -82 35 -98 39 l-30 6 7 -89 c18 -222 88 -374 239 -525 78 -77 101 -93
203 -142 63 -31 118 -56 122 -56 13 0 -3 160 -25 245 -39 151 -124 299 -226
390 l-45 40 19 79 c10 44 22 75 25 68 4 -6 18 -54 31 -106 36 -142 33 -140
102 -57 99 120 171 263 200 400 22 103 17 279 -10 384 -12 48 -19 87 -15 87 4
0 38 -14 76 -31 78 -36 259 -99 282 -99 9 0 -36 18 -100 39 -210 71 -326 140
-249 149 38 4 151 34 146 39 -2 2 -31 -3 -64 -11 -33 -9 -76 -16 -95 -16 -44
0 -67 -8 -67 -25 0 -6 -10 -20 -21 -31 -60 -53 -169 -248 -184 -327 -10 -51
-23 -55 -30 -10 -4 21 -13 63 -22 93 -15 54 -14 55 9 73 228 181 348 421 348
695 0 94 -11 197 -25 240 -3 8 -21 0 -56 -25 -130 -93 -217 -193 -285 -330
l-44 -87 0 111 0 110 56 37 c67 45 168 144 213 209 42 62 85 156 107 238 20
70 25 309 8 362 l-9 27 -52 -35z m-380 -1323 c3 7 6 0 6 -15 1 -31 -12 -28
-31 6 -10 19 -9 20 4 9 13 -10 17 -10 21 0z"/>
<path d="M4742 6989 c-87 -42 -116 -73 -128 -136 -10 -52 4 -89 44 -116 49
-34 144 -65 224 -73 l66 -7 54 114 54 114 -35 16 c-20 9 -67 41 -106 72 -38
31 -74 57 -80 57 -5 0 -47 -18 -93 -41z"/>
<path d="M4273 6981 c-27 -43 -92 -46 -146 -9 -16 11 -21 9 -38 -11 -24 -29
-24 -43 0 -134 20 -77 36 -343 21 -352 -18 -11 -24 24 -30 160 -5 125 -7 137
-19 110 -17 -42 -51 -75 -75 -75 -12 0 -35 8 -51 18 -38 24 -51 19 -65 -23
-15 -44 4 -89 64 -153 54 -58 66 -86 66 -158 0 -69 -10 -89 -60 -114 -49 -25
-59 -56 -35 -111 16 -34 22 -39 52 -39 41 0 93 -25 93 -45 0 -19 -18 -19 -50
0 -38 22 -69 19 -79 -9 -14 -35 -73 -50 -99 -24 -9 9 -12 9 -12 0 0 -22 29
-69 45 -76 51 -19 134 5 155 44 6 11 29 32 51 46 22 13 45 37 51 52 10 27 10
27 28 -24 29 -84 131 -275 169 -318 73 -81 195 -101 297 -49 30 15 49 30 44
33 -18 11 -31 73 -29 140 2 64 2 65 -27 71 -63 13 -105 52 -146 138 -19 40
-30 51 -60 60 -63 20 -118 109 -126 207 -3 46 1 77 17 126 30 90 42 104 95
112 48 8 76 35 97 95 16 46 -15 172 -51 211 -15 17 -32 30 -37 30 -5 0 -7 -29
-5 -65 l4 -65 -32 0 c-59 0 -110 -82 -110 -178 0 -50 -16 -63 -30 -26 -21 54
16 163 72 214 26 24 30 35 35 101 5 64 3 76 -14 91 -18 16 -19 16 -30 -1z
m112 -250 c4 -20 17 -34 41 -46 34 -16 42 -29 24 -40 -26 -16 -100 52 -100 93
0 42 25 37 35 -7z"/>
<path d="M3869 6870 c-21 -17 -22 -19 -6 -20 33 0 77 -54 77 -93 0 -53 55 -67
85 -21 23 35 13 69 -34 116 -44 44 -85 50 -122 18z"/>
<path d="M4583 6671 c-90 -65 -125 -200 -81 -313 12 -33 9 -33 56 -9 70 35
170 54 253 47 l76 -6 7 54 c3 30 14 81 25 115 l19 60 -47 7 c-68 9 -154 32
-206 54 -26 11 -50 20 -54 20 -5 0 -26 -13 -48 -29z"/>
<path d="M8370 6565 c19 -7 46 -14 60 -14 14 0 4 6 -25 14 -63 18 -81 18 -35
0z"/>
<path d="M6089 6415 c88 -95 176 -254 226 -408 32 -98 45 -125 45 -93 0 9 12
39 26 67 66 131 208 207 421 227 l78 7 -100 57 c-208 119 -454 188 -667 188
l-71 0 42 -45z"/>
<path d="M3338 6433 c6 -2 18 -2 25 0 6 3 1 5 -13 5 -14 0 -19 -2 -12 -5z"/>
<path d="M3698 6433 l43 -4 -31 -57 c-75 -142 -260 -350 -410 -463 -93 -70
-237 -153 -313 -181 -31 -11 -56 -23 -54 -25 13 -12 199 77 292 140 198 134
409 358 505 538 l31 59 -53 -2 c-50 -1 -51 -2 -10 -5z"/>
<path d="M3403 6423 c15 -2 39 -2 55 0 15 2 2 4 -28 4 -30 0 -43 -2 -27 -4z"/>
<path d="M3568 6423 c18 -2 45 -2 60 0 15 2 0 4 -33 4 -33 0 -45 -2 -27 -4z"/>
<path d="M4688 6350 c-79 -14 -167 -59 -193 -100 -35 -55 -39 -93 -18 -152 23
-65 67 -113 117 -127 39 -10 40 -9 80 33 23 24 55 50 71 59 34 17 132 37 183
37 29 0 33 3 27 18 -36 86 -50 125 -60 172 -10 49 -15 56 -41 61 -40 9 -109 8
-166 -1z"/>
<path d="M4810 6041 c-77 -24 -106 -46 -131 -97 -18 -38 -20 -56 -15 -122 3
-42 6 -83 7 -91 1 -7 17 -20 35 -27 18 -7 42 -25 53 -40 l21 -27 0 24 c1 33
34 103 70 149 37 47 85 77 155 99 l53 17 -40 67 -39 67 -57 -1 c-31 0 -82 -8
-112 -18z"/>
<path d="M4990 5863 c-61 -22 -142 -104 -164 -168 -10 -28 -22 -57 -26 -66 -8
-16 24 -53 95 -111 19 -16 20 -15 22 15 3 43 93 222 143 286 22 28 40 53 40
56 0 10 -66 3 -110 -12z"/>
<path d="M3148 5463 c7 -3 16 -2 19 1 4 3 -2 6 -13 5 -11 0 -14 -3 -6 -6z"/>
<path d="M3188 5453 c7 -3 16 -2 19 1 4 3 -2 6 -13 5 -11 0 -14 -3 -6 -6z"/>
<path d="M3228 5443 c7 -3 16 -2 19 1 4 3 -2 6 -13 5 -11 0 -14 -3 -6 -6z"/>
<path d="M3268 5433 c6 -2 18 -2 25 0 6 3 1 5 -13 5 -14 0 -19 -2 -12 -5z"/>
<path d="M7532 5422 c-34 -17 -37 -29 -9 -46 12 -8 22 -7 35 2 9 7 30 18 46
26 28 13 29 14 8 25 -27 14 -40 13 -80 -7z"/>
<path d="M3323 5423 c9 -2 23 -2 30 0 6 3 -1 5 -18 5 -16 0 -22 -2 -12 -5z"/>
<path d="M3383 5413 c9 -2 23 -2 30 0 6 3 -1 5 -18 5 -16 0 -22 -2 -12 -5z"/>
<path d="M3465 5401 c100 -22 340 -33 468 -22 70 6 134 11 142 11 12 0 15 -30
18 -162 l3 -163 2 173 c1 95 -2 171 -7 168 -4 -3 -73 -10 -152 -15 -130 -8
-233 -5 -454 13 -50 4 -53 4 -20 -3z"/>
<path d="M5452 5295 c0 -16 2 -22 5 -12 2 9 2 23 0 30 -3 6 -5 -1 -5 -18z"/>
<path d="M5441 5244 c0 -11 3 -14 6 -6 3 7 2 16 -1 19 -3 4 -6 -2 -5 -13z"/>
<path d="M7666 5064 c-17 -44 17 -104 59 -104 26 0 55 -33 55 -63 0 -10 5 -15
10 -12 15 9 12 82 -4 114 -14 26 -85 81 -105 81 -5 0 -12 -7 -15 -16z"/>
<path d="M2778 4977 c-150 -337 -119 -645 95 -935 l46 -63 15 36 c63 149 99
294 111 445 12 158 -41 331 -155 503 -35 53 -66 97 -69 97 -3 0 -22 -38 -43
-83z"/>
<path d="M4078 4964 c-7 -99 -42 -220 -82 -282 -28 -44 -77 -91 -126 -122 -19
-12 -27 -20 -18 -17 39 13 100 60 129 100 67 90 113 247 107 358 -3 46 -4 40
-10 -37z"/>
<path d="M8731 4874 c-55 -61 -144 -196 -176 -266 -43 -95 -58 -173 -51 -268
10 -118 30 -216 73 -348 l37 -112 28 27 c34 32 136 179 166 238 100 199 98
491 -6 719 l-27 59 -44 -49z"/>
<path d="M5425 4831 c-5 -16 -3 -26 6 -32 18 -11 22 1 11 32 l-9 24 -8 -24z"/>
<path d="M5269 4792 c-8 -3 -18 -11 -22 -18 -5 -9 -31 -15 -75 -16 l-67 -2 60
-3 c89 -5 105 -10 105 -36 0 -44 12 -69 29 -61 9 4 60 10 114 13 l97 6 -25 37
c-14 21 -39 45 -55 53 -32 16 -138 34 -161 27z"/>
<path d="M4995 4780 c11 -5 27 -9 35 -9 9 0 8 4 -5 9 -11 5 -27 9 -35 9 -9 0
-8 -4 5 -9z"/>
<path d="M5063 4763 c9 -2 23 -2 30 0 6 3 -1 5 -18 5 -16 0 -22 -2 -12 -5z"/>
<path d="M5208 4704 c-36 -19 -52 -70 -38 -123 12 -46 30 -63 30 -29 0 27 35
88 50 88 6 0 8 5 4 12 -4 6 -10 24 -13 39 -6 26 -7 27 -33 13z"/>
<path d="M4234 4553 c-132 -167 -205 -203 -412 -203 -113 0 -205 20 -274 57
-45 25 -88 68 -88 90 0 4 69 8 152 8 125 0 159 4 188 18 19 9 26 15 15 11 -68
-20 -143 -26 -252 -20 -113 5 -122 4 -116 -12 23 -64 99 -118 210 -147 90 -24
271 -21 358 6 65 19 77 28 158 110 l87 89 1 -37 c1 -33 3 -30 9 17 5 30 7 56
5 58 -1 2 -20 -19 -41 -45z"/>
<path d="M6917 4483 c-59 -76 -122 -136 -172 -162 -25 -14 -31 -19 -15 -15 44
11 98 52 151 116 28 35 56 65 60 66 5 2 10 -9 10 -25 1 -16 5 -8 9 22 4 28 6
51 5 53 -2 2 -23 -23 -48 -55z"/>
<path d="M7346 4490 c8 -63 14 -78 14 -32 0 18 3 32 8 31 4 0 30 -28 58 -62
53 -65 112 -111 154 -122 14 -3 6 5 -20 19 -43 23 -119 96 -188 181 l-32 40 6
-55z"/>
<path d="M4253 4445 c0 -22 2 -30 4 -17 2 12 2 30 0 40 -3 9 -5 -1 -4 -23z"/>
<path d="M3065 4343 c-73 -383 17 -682 279 -930 42 -40 76 -75 76 -77 0 -2
-35 11 -77 29 l-78 33 -55 110 c-67 133 -148 247 -243 340 -123 122 -201 174
-361 242 -90 38 -253 86 -262 77 -9 -9 74 -188 127 -274 63 -101 214 -260 307
-322 55 -37 135 -78 207 -107 13 -5 -12 -10 -75 -15 -134 -11 -270 -38 -270
-54 0 -24 198 -221 275 -274 90 -62 215 -122 305 -146 97 -25 313 -31 436 -12
162 26 158 19 71 118 -59 66 -155 151 -245 215 -2 1 4 40 14 86 25 123 23 336
-5 453 -26 109 -110 283 -181 377 -49 64 -204 218 -220 218 -4 0 -15 -39 -25
-87z"/>
<path d="M4682 4355 c-5 -145 -47 -254 -158 -402 -30 -40 -56 -73 -58 -73 -7
0 -102 134 -131 183 -15 27 -39 74 -52 105 -13 32 -21 44 -18 27 16 -75 170
-324 201 -325 17 0 132 165 170 245 40 83 56 162 51 247 l-3 63 -2 -70z"/>
<path d="M6942 4390 c0 -19 2 -27 5 -17 2 9 2 25 0 35 -3 9 -5 1 -5 -18z"/>
<path d="M7362 4380 c0 -19 2 -27 5 -17 2 9 2 25 0 35 -3 9 -5 1 -5 -18z"/>
<path d="M4243 4350 c0 -30 2 -43 4 -27 2 15 2 39 0 55 -2 15 -4 2 -4 -28z"/>
<path d="M6933 4280 c0 -36 2 -50 4 -32 2 17 2 47 0 65 -2 17 -4 3 -4 -33z"/>
<path d="M7373 4280 c0 -30 2 -43 4 -27 2 15 2 39 0 55 -2 15 -4 2 -4 -28z"/>
<path d="M8395 4284 c-324 -251 -461 -607 -381 -994 l13 -62 -56 -41 c-92 -67
-171 -138 -224 -202 l-50 -60 64 -16 c35 -10 60 -18 54 -19 -8 -1 -259 -2
-273 0 -2 0 23 20 56 45 78 59 188 177 231 249 44 74 95 210 116 311 22 104
33 315 16 315 -20 0 -184 -87 -248 -132 -262 -184 -394 -428 -410 -760 -3 -71
-9 -128 -13 -128 -27 0 -290 -199 -290 -219 0 -5 14 -14 30 -21 17 -7 32 -15
34 -19 2 -3 -71 -6 -163 -6 l-168 0 79 42 c166 89 284 198 368 343 68 117 127
284 148 423 9 54 8 57 -12 57 -39 0 -199 -51 -282 -89 -102 -48 -222 -129
-298 -200 -57 -54 -58 -55 -52 -26 9 48 26 196 26 233 0 32 -2 34 -27 28 -57
-13 -251 -119 -334 -181 -242 -181 -364 -409 -402 -750 l-13 -110 -39 -6 c-22
-4 -41 -6 -43 -5 -1 2 16 46 38 98 63 151 84 251 84 398 0 96 -5 146 -22 214
-29 115 -100 284 -159 377 l-47 72 -23 -29 c-36 -45 -118 -209 -151 -306 -83
-235 -82 -427 5 -671 36 -100 36 -100 18 -134 -13 -24 -25 -33 -39 -31 -19 3
-21 12 -28 125 -21 378 -142 620 -415 824 -52 40 -138 94 -191 120 l-97 49 -8
-28 c-7 -25 -3 -115 10 -227 l5 -50 -61 67 c-115 125 -254 210 -444 272 -153
51 -157 51 -157 22 0 -43 28 -171 54 -250 57 -169 144 -307 264 -417 68 -62
208 -155 250 -165 51 -14 15 -21 -100 -20 -68 1 -144 -3 -170 -7 -59 -10 -63
3 -8 28 l40 18 -22 25 c-38 41 -162 137 -222 171 l-56 32 0 62 c-1 155 -44
357 -102 470 -97 194 -269 358 -487 467 l-64 32 6 -139 c10 -268 77 -456 222
-627 45 -53 79 -83 187 -166 18 -14 9 -15 -110 -12 -187 6 -338 -30 -522 -123
l-54 -28 66 -62 c219 -208 487 -299 752 -255 33 5 61 8 63 6 2 -1 -31 -24 -72
-50 -90 -57 -175 -123 -175 -135 0 -13 192 -105 270 -129 121 -39 277 -56 385
-43 39 4 73 6 77 4 5 -2 -29 -35 -75 -72 -106 -89 -185 -180 -166 -192 25 -15
163 -49 249 -60 50 -7 144 -9 230 -6 212 8 311 42 508 173 l94 63 -6 -37 c-3
-20 -9 -95 -12 -166 -7 -142 2 -219 43 -351 26 -84 115 -266 157 -324 l25 -33
41 63 c115 177 190 414 190 600 0 97 -30 250 -70 361 -16 44 -27 84 -24 89 3
5 33 -28 67 -73 175 -233 379 -371 627 -424 103 -23 383 -24 468 -2 l52 13
-47 70 c-25 38 -87 111 -136 162 -50 51 -88 95 -86 97 2 3 31 -2 64 -10 70
-16 233 -18 322 -4 103 17 233 59 341 110 56 27 102 52 102 57 -1 14 -130 110
-193 144 -32 17 -57 33 -54 35 2 2 50 -1 106 -8 163 -19 308 10 481 97 73 37
207 135 259 188 l33 35 -103 51 c-57 28 -140 60 -184 72 -103 27 -127 41 -55
32 99 -14 299 -8 383 11 145 33 258 88 393 192 89 69 217 201 211 218 -7 21
-199 56 -304 56 -24 0 -43 4 -43 8 0 4 35 22 78 40 189 77 364 224 485 407 62
94 123 212 114 221 -8 8 -183 -28 -254 -51 -82 -28 -206 -88 -285 -139 -134
-85 -291 -267 -370 -427 -46 -94 -38 -87 -163 -135 -11 -4 19 33 67 82 106
107 160 177 203 264 73 146 101 288 92 468 -5 114 -23 232 -36 232 -3 0 -33
-21 -66 -46z m-3172 -1843 c38 -29 105 -72 148 -97 43 -25 79 -47 79 -48 0 -2
-24 1 -52 6 -61 10 -281 12 -324 3 -29 -6 -29 -6 10 27 22 18 55 47 74 63 l33
30 -73 39 c-40 22 -74 40 -75 40 0 1 -4 28 -8 61 l-6 60 63 -66 c35 -37 94
-90 131 -118z m1236 69 l-11 -81 -68 -34 c-38 -19 -71 -38 -73 -42 -3 -5 10
-19 29 -33 41 -30 43 -44 7 -36 -16 3 -83 11 -150 18 l-122 11 74 42 c96 55
185 120 260 188 33 30 61 54 63 52 2 -2 -2 -40 -9 -85z"/>
<path d="M6678 4293 c7 -3 16 -2 19 1 4 3 -2 6 -13 5 -11 0 -14 -3 -6 -6z"/>
<path d="M7618 4293 c7 -3 16 -2 19 1 4 3 -2 6 -13 5 -11 0 -14 -3 -6 -6z"/>
<path d="M7958 4293 c7 -3 16 -2 19 1 4 3 -2 6 -13 5 -11 0 -14 -3 -6 -6z"/>
<path d="M4252 4260 c0 -19 2 -27 5 -17 2 9 2 25 0 35 -3 9 -5 1 -5 -18z"/>
<path d="M6623 4283 c9 -2 23 -2 30 0 6 3 -1 5 -18 5 -16 0 -22 -2 -12 -5z"/>
<path d="M7663 4283 c9 -2 23 -2 30 0 6 3 -1 5 -18 5 -16 0 -22 -2 -12 -5z"/>
<path d="M7903 4283 c9 -2 23 -2 30 0 6 3 -1 5 -18 5 -16 0 -22 -2 -12 -5z"/>
<path d="M7758 4273 c23 -2 59 -2 80 0 20 2 1 4 -43 4 -44 0 -61 -2 -37 -4z"/>
<path d="M7356 4167 c-4 -26 -24 -80 -44 -120 -42 -83 -142 -227 -158 -227
-23 0 -139 178 -180 278 -13 32 -24 51 -24 44 -1 -45 97 -217 178 -312 l29
-34 67 89 c91 123 159 272 144 317 -3 7 -8 -8 -12 -35z"/>
<path d="M6942 4180 c0 -14 2 -19 5 -12 2 6 2 18 0 25 -3 6 -5 1 -5 -13z"/>
<path d="M1673 3245 c0 -38 2 -53 4 -32 2 20 2 52 0 70 -2 17 -4 1 -4 -38z"/>
<path d="M9941 3164 c0 -11 3 -14 6 -6 3 7 2 16 -1 19 -3 4 -6 -2 -5 -13z"/>
<path d="M1682 3110 c0 -14 2 -19 5 -12 2 6 2 18 0 25 -3 6 -5 1 -5 -13z"/>
<path d="M9931 3074 c0 -11 3 -14 6 -6 3 7 2 16 -1 19 -3 4 -6 -2 -5 -13z"/>
<path d="M2040 2186 c0 -2 8 -10 18 -17 15 -13 16 -12 3 4 -13 16 -21 21 -21
13z"/>
<path d="M9549 2153 c-13 -16 -12 -17 4 -4 16 13 21 21 13 21 -2 0 -10 -8 -17
-17z"/>
<path d="M2080 2136 c0 -2 8 -10 18 -17 15 -13 16 -12 3 4 -13 16 -21 21 -21
13z"/>
<path d="M9509 2103 c-13 -16 -12 -17 4 -4 16 13 21 21 13 21 -2 0 -10 -8 -17
-17z"/>
<path d="M9454 2038 l-29 -33 33 29 c17 17 32 31 32 33 0 8 -8 1 -36 -29z"/>
<path d="M2255 1940 c49 -49 92 -90 95 -90 2 0 -36 41 -85 90 -49 50 -92 90
-95 90 -2 0 36 -40 85 -90z"/>
<path d="M9389 1963 c-13 -16 -12 -17 4 -4 16 13 21 21 13 21 -2 0 -10 -8 -17
-17z"/>
<path d="M9264 1848 l-19 -23 23 19 c12 11 22 21 22 23 0 8 -8 2 -26 -19z"/>
<path d="M2385 1820 c10 -11 20 -20 23 -20 3 0 -3 9 -13 20 -10 11 -20 20 -23
20 -3 0 3 -9 13 -20z"/>
<path d="M9204 1798 l-19 -23 23 19 c21 18 27 26 19 26 -2 0 -12 -10 -23 -22z"/>
<path d="M2430 1786 c0 -2 8 -10 18 -17 15 -13 16 -12 3 4 -13 16 -21 21 -21
13z"/>
<path d="M3190 1350 c19 -11 40 -19 45 -19 6 0 -6 8 -25 19 -19 11 -39 19 -45
19 -5 0 6 -8 25 -19z"/>
<path d="M3560 1165 c14 -8 30 -14 35 -14 6 0 -1 6 -15 14 -14 8 -29 14 -35
14 -5 0 1 -6 15 -14z"/>
<path d="M3930 980 c19 -11 40 -19 45 -19 6 0 -6 8 -25 19 -19 11 -39 19 -45
19 -5 0 6 -8 25 -19z"/>
<path d="M7080 680 c-19 -11 -30 -19 -25 -19 6 0 26 8 45 19 19 11 31 19 25
19 -5 0 -26 -8 -45 -19z"/>
<path d="M6710 495 c-14 -8 -20 -14 -15 -14 6 0 21 6 35 14 14 8 21 14 15 14
-5 0 -21 -6 -35 -14z"/>
<path d="M6345 310 c-3 -6 1 -7 9 -4 18 7 21 14 7 14 -6 0 -13 -4 -16 -10z"/>
</g>
</svg>
